<svg width="312" height="246" viewBox="0 0 312 246" fill="none" xmlns="http://www.w3.org/2000/svg">
<path d="M26.7442 59.9977C26.3067 59.9968 25.886 59.8294 25.5675 59.5295C25.2491 59.2295 25.0568 58.8196 25.0298 58.3829C24.8836 56.1502 24.8171 53.7314 24.8171 50.5816C24.8171 49.3257 24.8171 48.0631 24.8171 46.8072C24.8171 45.5513 24.8171 44.3087 24.8171 43.0594C24.8171 39.9694 24.7573 37.637 24.6178 35.4774C24.6033 35.2518 24.6335 35.0256 24.7065 34.8117C24.7795 34.5977 24.8939 34.4003 25.0433 34.2306C25.1926 34.0609 25.3739 33.9223 25.5768 33.8226C25.7797 33.723 26.0003 33.6644 26.2259 33.65C26.4514 33.6356 26.6777 33.6657 26.8916 33.7387C27.1055 33.8117 27.303 33.9262 27.4727 34.0755C27.6424 34.2248 27.7809 34.4061 27.8806 34.6091C27.9802 34.812 28.0389 35.0325 28.0533 35.2581C28.1994 37.4908 28.2659 39.9096 28.2659 43.0594C28.2659 44.3153 28.2659 45.5779 28.2659 46.8338C28.2659 48.0897 28.2659 49.3323 28.2659 50.5816C28.2659 53.6716 28.3257 56.004 28.4652 58.1636C28.4797 58.3892 28.4495 58.6154 28.3765 58.8294C28.3035 59.0433 28.189 59.2408 28.0397 59.4104C27.8904 59.5801 27.7091 59.7187 27.5062 59.8184C27.3033 59.918 27.0827 59.9767 26.8572 59.991L26.7442 59.9977Z" fill="#F2BE42"/>
<path d="M39.7813 58.2109C39.3555 58.2097 38.9453 58.0508 38.6299 57.7649C38.3145 57.4789 38.1163 57.0862 38.0735 56.6626C37.8555 54.3456 37.7557 52.019 37.7745 49.6919C37.7745 48.2632 37.7745 46.8412 37.821 45.4125C37.8675 43.9838 37.8741 42.5949 37.8741 41.1928C37.8917 38.9744 37.7963 36.7565 37.5884 34.5478C37.5655 34.3221 37.5874 34.0941 37.6529 33.8769C37.7184 33.6597 37.8262 33.4576 37.9701 33.2822C38.114 33.1068 38.2911 32.9616 38.4914 32.8549C38.6916 32.7482 38.9109 32.6822 39.1367 32.6606C39.5904 32.6161 40.0433 32.7534 40.3958 33.0424C40.7484 33.3315 40.9719 33.7486 41.0173 34.2022C41.2354 36.5192 41.3352 38.8458 41.3163 41.1729C41.3163 42.5949 41.3163 44.0236 41.2698 45.4523C41.2233 46.881 41.2233 48.2632 41.2233 49.672C41.2039 51.8903 41.297 54.1081 41.5024 56.317C41.5253 56.5427 41.5034 56.7707 41.4379 56.9879C41.3724 57.2051 41.2646 57.4072 41.1207 57.5826C40.9768 57.758 40.7996 57.9032 40.5994 58.0099C40.3992 58.1166 40.1799 58.1826 39.954 58.2042L39.7813 58.2109Z" fill="#F2BE42"/>
<path d="M26.8637 48.5629C26.4582 48.5625 26.0659 48.419 25.7559 48.1576C25.4459 47.8962 25.2381 47.5338 25.1692 47.1342C25.09 46.6848 25.1925 46.2223 25.4542 45.8485C25.7159 45.4747 26.1153 45.22 26.5647 45.1406C28.946 44.7586 31.3502 44.5366 33.7613 44.4761C35.4292 44.403 37.1503 44.33 38.8581 44.1306C39.3116 44.0781 39.7675 44.2073 40.1262 44.49C40.4848 44.7726 40.7169 45.1857 40.7718 45.639C40.8243 46.0926 40.6951 46.5485 40.4125 46.9071C40.1298 47.2657 39.7167 47.4979 39.2634 47.5528C37.4294 47.7654 35.6418 47.8452 33.9141 47.9183C31.6528 47.9667 29.3973 48.1665 27.1627 48.5164C27.0642 48.5385 26.9643 48.554 26.8637 48.5629Z" fill="#F2BE42"/>
<path d="M64.2817 50.8879C63.8387 50.8884 63.4126 50.7181 63.0921 50.4124C62.7715 50.1067 62.5812 49.6891 62.5606 49.2466C62.4942 47.7249 62.4344 46.1899 62.3746 44.6549C62.235 40.834 62.0888 36.8868 61.71 33.0858C61.689 32.8601 61.7128 32.6325 61.78 32.4161C61.8472 32.1996 61.9565 31.9985 62.1016 31.8244C62.2467 31.6503 62.4247 31.5066 62.6255 31.4015C62.8263 31.2963 63.0459 31.2319 63.2717 31.2119C63.4968 31.1918 63.7237 31.2163 63.9394 31.2839C64.1551 31.3515 64.3553 31.4609 64.5287 31.6059C64.7021 31.7509 64.8453 31.9287 64.95 32.129C65.0547 32.3293 65.1189 32.5483 65.1389 32.7735C65.4978 36.6675 65.644 40.6612 65.8034 44.522C65.8566 46.0503 65.9164 47.5721 65.9829 49.0871C65.9936 49.3132 65.9596 49.5392 65.8828 49.7521C65.8061 49.965 65.6882 50.1607 65.5357 50.328C65.3832 50.4953 65.1993 50.6308 64.9944 50.7269C64.7895 50.823 64.5676 50.8777 64.3415 50.8879H64.2817Z" fill="#F2BE42"/>
<path d="M64.5672 60.8223C64.4109 60.824 64.2549 60.8084 64.1021 60.7758C63.4144 60.6327 62.7958 60.2602 62.3479 59.7192C61.8999 59.1783 61.6491 58.5011 61.6367 57.7988C61.6367 56.9416 62.2348 55.4996 63.4176 55.1408C63.7163 54.9039 64.0863 54.7751 64.4675 54.7753C64.8571 54.7503 65.2477 54.8067 65.6143 54.9409C65.9809 55.0751 66.3155 55.2842 66.5968 55.5549C66.8782 55.8256 67.1 56.152 67.2482 56.5131C67.3965 56.8743 67.4678 57.2624 67.4578 57.6527C67.4818 58.4529 67.1936 59.2311 66.6541 59.8226C66.1146 60.4141 65.3663 60.7727 64.5672 60.8223Z" fill="#F2BE42"/>
<path d="M46.8586 60.1716C46.632 60.1725 46.4075 60.1286 46.1979 60.0425C45.9883 59.9564 45.7978 59.8298 45.6373 59.6699C45.4767 59.51 45.3494 59.32 45.2625 59.1107C45.1756 58.9015 45.1309 58.6771 45.1309 58.4506V44.1703C45.1309 43.9437 45.1756 43.7194 45.2625 43.5101C45.3494 43.3009 45.4767 43.1109 45.6373 42.951C45.7978 42.7911 45.9883 42.6644 46.1979 42.5783C46.4075 42.4922 46.632 42.4484 46.8586 42.4492C47.315 42.4492 47.7528 42.6305 48.0756 42.9533C48.3983 43.2761 48.5797 43.7138 48.5797 44.1703V58.4705C48.5744 58.9235 48.3907 59.3561 48.0685 59.6746C47.7463 59.9931 47.3116 60.1717 46.8586 60.1716Z" fill="#F2BE42"/>
<path d="M46.7987 39.1859C46.3947 39.1832 46.0012 39.0578 45.6701 38.8264C45.339 38.595 45.0861 38.2685 44.9447 37.8901C44.7097 37.5617 44.5779 37.1707 44.5659 36.7671C44.5676 36.3348 44.7151 35.9157 44.9846 35.5776C45.0687 35.311 45.217 35.0692 45.4165 34.8733C45.6568 34.6368 45.9611 34.4762 46.2919 34.4112C46.6227 34.3462 46.9653 34.3798 47.2771 34.5078C47.6261 34.47 47.9783 34.5402 48.286 34.7089C48.5938 34.8777 48.8424 35.1368 48.9982 35.4514C49.1862 35.8173 49.2842 36.2228 49.2839 36.6342C49.268 37.2946 49.003 37.9246 48.5421 38.3978C48.0812 38.8711 47.4584 39.1526 46.7987 39.1859Z" fill="#F2BE42"/>
<path d="M38.944 98.3203C32.0125 97.5425 25.3541 95.1752 19.4872 91.4028C8.71555 84.4122 -4.71413 64.8225 1.63856 51.5324C2.46255 49.798 5.3 49.4458 6.54263 50.8679C11.6195 56.8484 13.1877 64.3441 19.4407 69.7133C25.667 75.1116 33.4597 78.3721 41.6751 79.0164C49.8818 79.5679 58.9124 75.2553 66.82 77.0694C70.3884 77.8867 71.7374 80.6046 73.5183 83.4553C75.0788 86.0157 76.9939 88.3424 79.2065 90.3662C79.2065 85.7744 79.1267 81.1827 79.047 76.591C78.7347 76.7504 78.4423 76.9232 78.13 77.076C71.7374 80.1195 66.2353 74.0592 68.9199 67.866C70.5812 64.0251 73.0266 61.2741 75.565 58.0379C78.1034 54.8018 78.3692 51.9311 78.4755 47.7912C78.7081 39.0928 78.0701 31.4576 75.6779 23.1513C75.6351 22.9961 75.6286 22.8332 75.6588 22.6751C75.689 22.517 75.7552 22.368 75.8522 22.2395C75.9491 22.1111 76.0743 22.0066 76.2181 21.9343C76.3619 21.8619 76.5204 21.8236 76.6813 21.8223C86.4296 22.9054 90.5297 39.3719 92.3836 47.0735C94.3041 55.0476 93.0083 62.4502 88.8551 68.3378C88.8551 78.2522 88.0976 88.2331 87.2669 98.0745C87.2484 98.7829 87.0479 99.4748 86.6848 100.083C86.3218 100.692 85.8083 101.197 85.1938 101.55C84.5792 101.903 83.8841 102.092 83.1754 102.099C82.4667 102.106 81.7681 101.931 81.1468 101.59C75.2593 98.7722 71.0729 95.0111 66.5276 91.0573C65.5309 91.9278 64.4611 92.7916 64.1886 92.971C62.3967 94.1632 60.4805 95.1569 58.4738 95.9347C54.4447 97.5294 50.1773 98.439 45.8482 98.626C45.5425 98.626 45.2302 98.626 44.9246 98.626L38.944 98.3203Z" fill="#E0DFE6" fill-opacity="0.2"/>
<path d="M141.803 221.754C131.118 231.369 116.631 234.06 102.796 236.612C86.8605 239.619 70.6186 240.681 54.4269 239.775C48.021 239.403 40.213 239.383 35.2159 234.745C32.0728 231.827 29.8201 227.435 32.7772 223.621C33.0518 223.202 33.4132 222.848 33.8368 222.582C34.2605 222.315 34.7365 222.143 35.2326 222.077C35.7287 222.011 36.2331 222.052 36.7118 222.198C37.1905 222.344 37.6322 222.591 38.0069 222.923C40.3659 224.824 49.3035 222.312 51.9615 222.059C57.663 221.521 63.3445 221.009 69.0128 220.139C80.8011 218.325 92.5961 216.65 104.232 213.886C114.279 211.487 124.559 209.155 132.653 202.443C136.532 199.197 140.174 195.677 143.551 191.911C147.119 187.963 150.162 183.272 155.133 180.979C157.126 180.062 160.143 180.627 160.615 183.205C161.818 189.791 158.841 195.705 155.964 201.466C153.352 206.649 150.415 211.906 146.753 216.497L141.803 221.754Z" fill="#E0DFE6" fill-opacity="0.2"/>
<path d="M106.432 97.2238C102.292 95.8948 98.3711 96.9846 94.3575 98.3601C93.6069 98.5901 92.9382 99.0309 92.4307 99.6299C91.9232 100.229 91.5984 100.961 91.4948 101.739C91.3912 102.517 91.5133 103.309 91.8464 104.02C92.1795 104.731 92.7098 105.331 93.3741 105.749C98.2848 108.952 105.933 108.461 108.658 102.713C109.721 100.473 108.87 98.0278 106.432 97.2238Z" fill="#E0DFE6" fill-opacity="0.2"/>
<path d="M129.383 98.2134C129.024 97.0111 128.293 95.9537 127.294 95.1931C126.296 94.4325 125.083 94.008 123.828 93.9805C122.723 93.9814 121.636 94.2577 120.665 94.7845C123.429 93.6017 119.655 95.1899 119.874 95.057C119.648 95.1965 119.403 95.3427 119.21 95.4955C119.21 95.4955 118.279 96.1933 117.602 96.7913L117.522 96.8379C116.867 97.2193 116.335 97.7794 115.987 98.4526C115.812 98.7759 115.738 99.1439 115.773 99.5097C115.809 99.8755 115.953 100.222 116.186 100.506C116.211 101.804 116.651 103.06 117.443 104.089C118.235 105.118 119.337 105.865 120.585 106.221C121.748 106.589 122.987 106.647 124.179 106.387C125.371 106.127 126.473 105.558 127.377 104.739C128.299 103.956 128.979 102.926 129.335 101.77C129.69 100.613 129.707 99.3791 129.383 98.2134Z" fill="#E0DFE6" fill-opacity="0.2"/>
<path d="M273.196 40.8475C262.677 19.6365 240.894 3.60192 216.813 3.13676C206.028 2.93077 194.884 5.96756 186.152 12.3535C176.098 19.6631 171.181 30.6872 167.081 42.0436C166.583 43.4258 168.736 44.2963 169.433 43.0338C174.596 33.6576 179.919 23.4906 189.196 17.5566C197.715 12.1076 208.221 10.4331 218.142 11.8883C238.216 14.8321 251.925 31.159 261.999 47.3996C266.418 54.563 276.884 48.2967 273.196 40.8475Z" fill="#E0DFE6" fill-opacity="0.2"/>
<path d="M253.142 86.7442C251.773 82.3253 249.879 77.3149 245.879 74.7831C245.004 74.2432 243.969 74.0254 242.951 74.1673C241.933 74.3092 240.997 74.802 240.303 75.5606L240.237 75.5074C238.283 77.4677 237.625 79.8599 237.16 82.2987C235.532 85.9801 233.652 89.5485 232.143 93.3096C228.861 96.7783 224.681 100.294 223.505 104.48C221.418 102.573 218.388 102.413 215.73 103.629C216.913 103.091 214.56 104.114 214.514 104.141C214.173 104.343 213.845 104.565 213.53 104.806C213.736 103.592 213.596 102.345 213.126 101.207C212.656 100.07 211.875 99.0873 210.872 98.3731C206.832 95.5556 203.177 98.2336 199.616 100.147C189.229 105.716 174.823 99.4363 163.732 100.593C163.021 100.666 162.343 101.443 162.835 102.161C167.115 108.334 176.517 109.995 183.501 110.68C187.748 111.098 192.253 111.663 196.506 111.072C198.26 110.873 199.974 110.409 201.589 109.696C202.588 109.3 203.512 108.736 204.32 108.028C204.693 107.896 205.057 107.74 205.41 107.563C206.04 108.254 206.877 108.72 207.796 108.892C207.589 109.506 207.539 110.161 207.649 110.799C208.008 113.271 211.092 115.119 213.231 115.87C214.729 116.421 216.331 116.632 217.92 116.488C219.509 116.345 221.047 115.85 222.421 115.039C223.661 114.295 224.624 113.167 225.165 111.827C225.706 110.486 225.795 109.006 225.418 107.61C228.575 108.361 231.944 107.337 235.14 106.693C240.27 105.663 245.825 104.699 249.759 100.958C253.693 97.2169 254.73 91.8676 253.142 86.7442Z" fill="#E0DFE6" fill-opacity="0.2"/>
<path d="M247.812 34.0368C243.951 31.5981 234.901 26.601 230.475 29.8239C230.269 29.9503 230.095 30.1212 229.963 30.3239C229.832 30.5266 229.748 30.7561 229.717 30.9955C229.686 31.235 229.708 31.4783 229.783 31.7079C229.858 31.9375 229.983 32.1474 230.15 32.3224C233.23 35.3997 235.776 38.9681 237.685 42.8814C239.905 47.7124 238.476 52.5965 242.556 56.7497C245.626 59.8662 251.593 60.2051 254.61 56.7497C261.694 48.6294 255.514 38.9077 247.812 34.0368Z" fill="#E0DFE6" fill-opacity="0.2"/>
<path d="M285.051 89.3556C284.983 89.1249 284.844 88.9219 284.652 88.7761C284.461 88.6303 284.228 88.5493 283.988 88.5449C277.874 88.6512 271.362 93.3626 265.608 95.19C257.261 97.848 248.251 97.5623 240.19 101.171C236.778 102.652 233.678 104.767 231.053 107.404C230.161 106.695 229.032 106.353 227.897 106.45C226.762 106.546 225.706 107.073 224.946 107.922C221.471 111.623 219.896 116.561 216.494 120.348C212.859 124.382 208.124 127.264 202.872 128.641C197.649 130.07 198.479 138.828 204.201 138.363C212.254 137.699 221.079 136.795 227.518 131.386C231.073 128.395 233.545 124.262 236.635 120.827C239.725 117.391 242.616 116.129 247.108 115.185C256.697 113.191 266.458 113.032 274.884 107.404C280.101 103.915 287.038 96.22 285.051 89.3556Z" fill="#E0DFE6" fill-opacity="0.2"/>
<path d="M189.336 113.492C192.372 114.867 189.681 112.867 188.671 111.737C187.463 110.438 186.017 109.382 184.412 108.627C181.036 106.959 177.102 106.634 173.527 105.451C167.719 103.537 160.197 98.8923 154.137 101.942C153.789 102.15 153.537 102.486 153.435 102.877C153.334 103.269 153.39 103.685 153.592 104.036C156.788 108.94 164.151 112.874 169.301 115.465C171.839 116.734 175.946 117.007 178.145 118.615C180.345 120.223 180.139 123.014 182.903 124.556C190.173 128.629 196.698 116.821 189.336 113.492Z" fill="#E0DFE6" fill-opacity="0.2"/>
<path d="M311.007 169.429C309.246 161.834 301.963 148.132 293.065 147.467C292.758 147.471 292.464 147.594 292.247 147.812C292.029 148.029 291.906 148.323 291.902 148.63C291.716 152.318 293.789 156.026 294.301 159.747C294.858 164.032 294.814 168.373 294.168 172.645C292.886 181.457 288.354 189.045 282.473 195.584C276.034 202.741 268.824 209.638 260.916 215.161C257.401 217.619 253.866 220.118 250.204 222.37C248.703 217.985 242.636 215.114 238.855 219.387C238.762 219.486 238.688 219.593 238.602 219.692C238.502 217.566 238.376 215.367 238.429 213.194C238.954 212.223 239.453 211.24 239.904 210.23C240.343 209.818 240.788 209.426 241.233 209.047C248.955 202.694 256.61 198.88 259.281 188.407C261.368 180.234 260.404 170.147 259.674 161.608C260.737 162.439 261.86 163.216 262.95 164.067C266.136 166.65 269.508 168.998 273.037 171.09C274.115 171.707 275.312 172.089 276.548 172.209C277.785 172.33 279.033 172.187 280.21 171.79C281.387 171.393 282.467 170.752 283.378 169.907C284.29 169.063 285.011 168.035 285.496 166.891C287.649 161.774 284.745 156.863 279.801 155.043C275.658 153.564 271.289 152.818 266.89 152.836C263.275 152.836 259.58 152.644 256.411 154.617C256.186 154.756 255.991 154.937 255.837 155.152C255.683 155.366 255.573 155.609 255.514 155.867C254.737 155.846 253.966 156.018 253.271 156.365C252.576 156.713 251.977 157.226 251.527 157.86C251.281 158.186 251.048 158.525 250.862 158.87C250.736 157.807 250.576 156.744 250.37 155.641C249.6 151.474 245.586 141.639 252.005 140.178C255.952 139.28 255.992 133.047 252.005 132.164C250.253 131.775 248.53 131.264 246.849 130.635H246.981C252.889 131.791 259.408 134.038 265.315 134.356C266.585 134.438 267.857 134.24 269.043 133.778C269.708 134.443 270.372 135.074 271.083 135.666C274.891 138.928 278.519 142.105 283.795 141.992C284.75 141.977 285.684 141.714 286.506 141.228C287.329 140.743 288.011 140.053 288.486 139.225C288.961 138.396 289.213 137.459 289.216 136.504C289.22 135.549 288.975 134.61 288.507 133.778C286.181 129.725 282.453 128.19 278.619 125.897C277.356 125.14 276.08 124.369 274.791 123.611C274.707 122.228 274.355 120.874 273.754 119.624C269.555 111.032 259.6 112.647 251.699 113.345C243.22 114.089 234.695 115.059 226.282 116.388C222.295 117.053 221.883 122.216 224.082 124.741C229.399 130.841 235.293 135.606 242.529 138.264C240.223 144.404 243.526 153.202 241.911 159.654C240.223 166.406 236.595 172.991 234.343 179.589C232.09 186.188 229.95 192.88 227.618 199.432C225.81 204.515 223.358 209.313 218.381 211.858C212.892 214.675 206.42 214.868 200.439 214.669C189.316 214.31 172.736 213.572 166.377 202.787C166.326 202.707 166.254 202.642 166.168 202.602C166.082 202.561 165.986 202.546 165.892 202.558C165.798 202.569 165.709 202.608 165.636 202.669C165.563 202.729 165.509 202.81 165.48 202.9C164.436 208.363 166.503 213.313 169.972 217.314C169.722 217.324 169.483 217.413 169.286 217.566C169.089 217.72 168.946 217.931 168.875 218.171C165.367 229.268 180.664 234.518 188.605 235.88C190.552 236.212 192.718 236.544 194.944 236.724C194.2 238.883 195.748 241.993 198.333 241.734C208.566 240.684 220.009 240.784 229.957 238.026C230.639 237.831 231.305 237.584 231.95 237.289C232.223 241.541 235.047 244.538 239.825 245.017C251.932 246.246 265.953 238.212 275.21 231.162C285.609 223.248 295.391 214.077 303.212 203.572C310.502 193.763 313.804 181.517 311.007 169.429Z" fill="#E0DFE6" fill-opacity="0.2"/>
<path d="M162.137 73.3549C161.998 68.8363 163.2 59.1544 157.791 57.0612C157.246 56.7696 156.627 56.6426 156.01 56.6958C155.791 56.6958 155.592 56.6426 155.346 56.6426C148.734 56.729 145.119 66.5504 143.345 71.5209C141.072 77.8802 137.876 89.7816 143.757 94.7786C144.587 95.5191 145.676 95.9033 146.787 95.8485C147.493 97.1573 148.461 98.3065 149.631 99.2242C152.196 101.218 156.761 101.716 158.456 98.0879C162.137 90.2467 162.396 81.9005 162.137 73.3549Z" fill="#F2BE42"/>
<path d="M271.229 53.1481C270.687 52.945 270.129 52.785 269.561 52.6697C265.94 49.3471 260.564 50.3638 257.653 54.5369C253.102 61.0558 251.673 71.2161 251.48 78.9775C251.334 85.1973 252.457 92.7129 258.69 95.7762C264.923 98.8396 273.728 95.8294 277.881 90.6396C285.417 81.2368 283.981 57.8794 271.229 53.1481Z" fill="#F2BE42"/>
<path d="M82.8877 100.421C82.6136 100.416 82.3434 100.354 82.0941 100.24C81.8449 100.126 81.6219 99.9612 81.4391 99.7567C80.1101 98.3015 78.7811 96.8329 77.4521 95.371C73.7441 91.251 69.9299 87.0049 65.9628 83.0643C59.6564 86.5434 52.5654 88.3527 45.3631 88.3206C19.0951 88.3206 0.748047 71.3026 0.748047 46.9284C0.748047 26.9334 15.9852 8.80567 36.1929 4.76547C39.276 4.15107 42.412 3.84168 45.5558 3.8418C67.7835 3.8418 90.7755 19.378 90.7755 45.3735C90.7755 52.1847 87.4529 61.0293 81.9973 68.6312C82.5555 76.9907 83.4659 85.4964 84.343 93.723L84.8281 98.2616C84.8666 98.6712 84.7774 99.0827 84.5728 99.4396C84.3682 99.7965 84.0581 100.081 83.6852 100.255C83.4336 100.365 83.1622 100.421 82.8877 100.421ZM66.2751 78.6919C66.7851 78.6938 67.2751 78.8912 67.644 79.2434C72.043 83.5228 76.2294 88.1744 80.2696 92.6731C79.4058 84.6259 78.5419 76.3462 78.0169 68.1727C77.9838 67.7114 78.1183 67.2537 78.3957 66.8836C83.5191 59.9328 86.8349 51.4936 86.8349 45.3934C86.8349 21.8499 65.8299 7.78232 45.5292 7.78232C42.6421 7.77901 39.7618 8.06171 36.9305 8.62626C18.5236 12.3076 4.63544 28.7807 4.63544 46.9484C4.63544 69.3622 20.9956 84.4266 45.3365 84.4266C52.3562 84.4641 59.2516 82.5747 65.2717 78.9643C65.5864 78.7911 65.9429 78.7083 66.3017 78.7251L66.2751 78.6919Z" fill="#525D7D"/>
<path d="M100.125 100.812C95.7459 100.812 95.0947 98.4728 95.0947 97.0773C95.0947 94.6917 97.0882 91.3625 100.298 91.3625C100.459 91.3619 100.62 91.382 100.776 91.4223C101.046 91.3445 101.326 91.3042 101.607 91.3027C102.67 91.3477 103.673 91.8119 104.395 92.5939C105.117 93.3759 105.501 94.4121 105.461 95.4758C105.494 96.1854 105.379 96.894 105.122 97.5564C104.866 98.2188 104.474 98.8204 103.972 99.3226C103.47 99.8249 102.868 100.217 102.206 100.473C101.543 100.73 100.835 100.845 100.125 100.812ZM99.0485 96.8248C99.4043 96.8822 99.7647 96.9067 100.125 96.8979C100.79 96.8979 101.54 96.7384 101.54 95.4825C101.549 95.4252 101.549 95.367 101.54 95.3097L101.408 95.3562C100.8 95.6159 100.157 95.786 99.5004 95.8613C99.2962 96.1521 99.1434 96.4757 99.0485 96.8182V96.8248Z" fill="#525D7D"/>
<path d="M121.502 100.733C120.2 100.77 118.936 100.29 117.988 99.3963C117.04 98.5031 116.485 97.2701 116.445 95.9681C116.44 94.9095 116.786 93.879 117.429 93.0376C117.406 92.8589 117.406 92.6781 117.429 92.4994C117.48 92.2475 117.58 92.008 117.723 91.7948C117.866 91.5816 118.05 91.3987 118.265 91.2568C118.479 91.1148 118.719 91.0165 118.971 90.9675C119.223 90.9184 119.483 90.9196 119.735 90.971C119.869 90.9873 120.005 90.9873 120.14 90.971C120.324 90.9191 120.514 90.8966 120.705 90.9045C120.904 90.8713 121.117 90.8248 121.33 90.7717C121.942 90.613 122.571 90.5239 123.203 90.5059C124.382 90.53 125.505 91.0127 126.334 91.8514C127.163 92.6901 127.632 93.8188 127.642 94.9979C127.676 97.9085 124.606 100.733 121.502 100.733ZM121.23 94.8185C120.359 95.3501 120.359 95.8086 120.359 95.9681C120.359 96.4399 120.871 96.8187 121.502 96.8187C122.672 96.8187 123.762 95.5893 123.762 95.0245C123.762 94.8384 123.516 94.453 123.237 94.453C122.893 94.4779 122.553 94.5335 122.22 94.6192C121.908 94.6723 121.582 94.7653 121.23 94.8185Z" fill="#525D7D"/>
<path d="M151.08 103.343C139.218 103.343 138.235 92.1529 138.235 79.6868C138.235 66.3966 143.332 52.1895 157.638 52.1895C158.421 52.1896 159.202 52.2429 159.978 52.3489C160.489 52.4264 160.951 52.7 161.265 53.1117C161.579 53.5234 161.72 54.0411 161.659 54.5551C161.58 55.0657 161.306 55.5257 160.894 55.8381C160.482 56.1504 159.966 56.2908 159.453 56.2296C158.851 56.1482 158.245 56.106 157.638 56.1034C147.943 56.1034 142.155 64.9214 142.155 79.6868C142.155 96.3725 145.159 99.4226 151.08 99.4226C152.909 99.3664 154.73 99.1686 156.529 98.8312C157.811 98.6252 159.14 98.4192 160.423 98.3129C160.679 98.2901 160.937 98.3185 161.183 98.3962C161.428 98.4739 161.656 98.5996 161.852 98.7658C162.049 98.932 162.21 99.1356 162.328 99.3646C162.445 99.5937 162.516 99.8438 162.536 100.1C162.569 100.616 162.402 101.124 162.069 101.518C161.735 101.912 161.262 102.161 160.748 102.214C159.612 102.307 158.416 102.499 157.147 102.699C155.145 103.075 153.116 103.291 151.08 103.343Z" fill="#525D7D"/>
<path d="M203.416 69.0827C187.016 69.0827 174.271 66.8566 163.313 62.0855C162.848 61.8728 162.482 61.4892 162.291 61.0142C162.101 60.5392 162.1 60.0091 162.29 59.5338C171.487 37.7246 194.385 22.4941 217.969 22.4941C240.708 22.4941 250.417 34.2692 260.75 49.6658C261.031 50.0994 261.132 50.6251 261.033 51.1321C260.934 51.6391 260.642 52.0878 260.218 52.3837C259.784 52.6638 259.258 52.7643 258.751 52.6639C258.243 52.5634 257.795 52.27 257.5 51.8454C247.533 36.9538 238.814 26.4147 217.969 26.4147C196.565 26.4147 175.773 39.8245 166.702 59.2547C176.749 63.2816 188.485 65.1621 203.416 65.1621C232.654 65.1621 241.904 61.3612 248.038 58.8493C249.134 58.3974 250.171 57.9722 251.194 57.6266C251.437 57.5429 251.694 57.508 251.951 57.5238C252.207 57.5396 252.458 57.6059 252.689 57.7189C252.92 57.8319 253.126 57.9893 253.296 58.1821C253.466 58.375 253.596 58.5994 253.679 58.8427C253.763 59.0861 253.798 59.3437 253.781 59.6005C253.765 59.8574 253.698 60.1085 253.585 60.3394C253.471 60.5704 253.313 60.7766 253.119 60.9462C252.926 61.1159 252.701 61.2456 252.457 61.3279C251.546 61.6403 250.609 62.0257 249.526 62.4709C243.107 65.1023 233.399 69.0827 203.416 69.0827Z" fill="#525D7D"/>
<path d="M264.279 100.486C248.802 100.486 247.52 89.043 247.52 76.2977C247.52 49.8437 260.524 46.9863 266.126 46.9863C267.433 46.9898 268.735 47.1437 270.007 47.4448C272.098 47.9667 274.025 49.0065 275.609 50.4684C281.649 55.6449 284.686 70.8222 284.686 77.8593C284.679 91.3953 276.479 100.486 264.279 100.486ZM266.12 50.9069C260.637 50.9069 251.441 54.2295 251.441 76.2977C251.441 90.3188 253.295 96.5718 264.279 96.5718C274.293 96.5718 280.759 89.2291 280.759 77.8593C280.759 71.5797 277.835 57.5387 273.05 53.4387C271.941 52.3958 270.589 51.6465 269.116 51.2591C268.142 51.032 267.146 50.9139 266.146 50.9069H266.12Z" fill="#525D7D"/>
<path d="M261.74 100.367C261.45 100.367 261.163 100.303 260.901 100.179C260.639 100.054 260.408 99.8735 260.225 99.6489C255.573 93.974 253.154 83.9134 253.154 76.9095C253.154 71.8393 254.929 52.3227 263.62 49.3989C264.113 49.2435 264.647 49.2856 265.109 49.5162C265.572 49.7467 265.927 50.1478 266.099 50.6349C266.254 51.1285 266.211 51.663 265.979 52.1256C265.747 52.5881 265.345 52.9424 264.856 53.1135C259.746 54.8146 257.068 69.5135 257.068 76.9095C257.068 83.0628 259.235 92.2529 263.255 97.1703C263.418 97.3688 263.54 97.5974 263.614 97.8431C263.689 98.0888 263.714 98.3468 263.689 98.6023C263.664 98.8578 263.588 99.1058 263.467 99.3321C263.346 99.5585 263.181 99.7587 262.982 99.9213C262.632 100.209 262.193 100.367 261.74 100.367Z" fill="#525D7D"/>
<path d="M146.468 102.473C145.988 102.473 145.525 102.296 145.167 101.976C144.809 101.656 144.581 101.216 144.528 100.739C144.052 96.3252 143.83 91.8879 143.863 87.4488C143.863 75.3481 144.275 64.5299 149.312 54.662C149.428 54.4292 149.589 54.2219 149.787 54.0523C149.984 53.8827 150.213 53.7542 150.461 53.6744C150.708 53.5945 150.969 53.5649 151.229 53.5873C151.488 53.6097 151.74 53.6837 151.97 53.8048C152.433 54.0472 152.782 54.4615 152.942 54.9586C153.102 55.4557 153.061 55.9958 152.827 56.4628C148.176 65.5599 147.81 75.8864 147.81 87.4754C147.789 91.7573 148.011 96.0369 148.475 100.294C148.504 100.549 148.483 100.808 148.413 101.055C148.342 101.302 148.224 101.533 148.064 101.734C147.904 101.935 147.706 102.103 147.481 102.228C147.256 102.352 147.009 102.431 146.754 102.46L146.468 102.473Z" fill="#525D7D"/>
<path d="M199.329 111.843C179.394 111.843 168.098 109.457 162.782 104.115C158.688 99.9749 158.728 94.7718 158.794 89.7414V88.1865C158.794 87.9872 158.974 68.0719 165.44 68.0719C165.828 68.0769 166.208 68.1896 166.536 68.3975C169.912 70.2116 187.714 79.2888 207.357 79.2888C222.561 79.2888 231.279 75.3017 241.359 70.7498C243.393 69.8262 245.466 68.8892 247.646 67.9523C248.124 67.7571 248.66 67.7554 249.14 67.9476C249.619 68.1397 250.006 68.5107 250.217 68.9823C250.413 69.4608 250.414 69.9965 250.222 70.4762C250.03 70.956 249.659 71.3424 249.187 71.5539C247.034 72.4776 244.988 73.4079 242.981 74.3182C232.914 78.8901 223.411 83.2027 207.357 83.2027C188.226 83.2027 171.267 75.2951 165.446 72.2516C163.998 74.3581 162.708 83.2559 162.708 88.1998C162.708 88.7314 162.708 89.263 162.708 89.788C162.669 94.4063 162.635 98.3933 165.586 101.37C169.972 105.789 181.009 107.942 199.336 107.942C200.957 107.942 202.528 107.922 204.047 107.883C204.304 107.875 204.559 107.919 204.799 108.012C205.038 108.104 205.257 108.243 205.442 108.42C205.628 108.597 205.776 108.81 205.879 109.045C205.982 109.28 206.037 109.533 206.041 109.79C206.041 110.304 205.843 110.798 205.488 111.17C205.133 111.541 204.647 111.761 204.134 111.783C202.583 111.823 200.982 111.843 199.329 111.843Z" fill="#525D7D"/>
<path d="M220.634 110.46C220.164 110.454 219.712 110.281 219.357 109.974C219.002 109.666 218.767 109.243 218.693 108.779C218.657 108.525 218.671 108.266 218.734 108.017C218.798 107.768 218.91 107.534 219.065 107.328C219.219 107.122 219.412 106.949 219.634 106.819C219.855 106.688 220.1 106.602 220.355 106.566C236.303 104.267 244.277 99.5824 249.487 96.4791C250.47 95.901 251.36 95.376 252.184 94.9308C252.644 94.6924 253.179 94.6423 253.675 94.7911C254.171 94.9399 254.59 95.276 254.842 95.7282C254.966 95.9549 255.043 96.2037 255.07 96.4603C255.096 96.7169 255.072 96.9763 254.998 97.2234C254.924 97.4706 254.801 97.7006 254.638 97.9001C254.474 98.0997 254.273 98.2649 254.045 98.3863C253.261 98.8049 252.417 99.3099 251.487 99.8615C245.978 103.118 237.645 108.042 220.919 110.447L220.634 110.46Z" fill="#525D7D"/>
<path d="M211.324 118.183C206.792 118.183 201.975 114.614 201.975 108.002C201.975 103.238 204.194 99.5365 207.769 98.347C208.071 98.2264 208.363 98.0796 208.64 97.9085C209.529 97.323 210.559 96.9857 211.623 96.9316C216.939 96.9316 222.667 100.613 222.667 107.444C222.667 114.096 216.062 118.183 211.324 118.183ZM208.998 102.062C206.101 103.025 205.875 106.853 205.875 108.002C205.875 112.308 208.693 114.269 211.311 114.269C214.268 114.269 218.733 111.544 218.733 107.444C218.733 102.228 214.082 100.846 211.61 100.846C211.232 100.941 210.874 101.103 210.553 101.324C210.059 101.618 209.539 101.865 208.998 102.062Z" fill="#525D7D"/>
<path d="M179.594 77.1883C178.029 77.2078 176.521 76.6059 175.4 75.5146C174.278 74.4232 173.636 72.9317 173.613 71.3672C173.613 69.3072 174.823 66.2638 177.421 66.2107C177.42 66.0544 177.436 65.8985 177.467 65.7455C177.522 65.4937 177.627 65.2553 177.774 65.0441C177.922 64.8328 178.11 64.6528 178.327 64.5144C178.545 64.3761 178.787 64.2821 179.041 64.2379C179.295 64.1937 179.555 64.2002 179.806 64.257C181.25 64.5165 182.55 65.2918 183.464 66.4385C184.379 67.5851 184.845 69.025 184.777 70.4901C184.784 73.7196 183.162 77.1883 179.594 77.1883ZM177.879 70.0847C177.67 70.4783 177.554 70.9149 177.541 71.3606C177.563 71.8847 177.791 72.3788 178.176 72.7358C178.56 73.0928 179.07 73.2839 179.594 73.2677C180.79 73.2677 180.87 70.5167 180.87 70.4834C180.927 70.001 180.818 69.5135 180.561 69.1014C180.303 68.6894 179.913 68.3775 179.454 68.2175C179.436 68.6593 179.271 69.0825 178.986 69.4206C178.701 69.7586 178.312 69.9922 177.879 70.0847Z" fill="#525D7D"/>
<path d="M230.07 77.142C224.84 77.142 224.84 73.228 224.84 71.3408C224.807 69.776 225.3 68.2453 226.242 66.995C226.396 66.7892 226.589 66.6159 226.81 66.4848C227.031 66.3537 227.275 66.2675 227.53 66.2311C227.784 66.1947 228.043 66.2088 228.292 66.2726C228.541 66.3364 228.774 66.4486 228.98 66.6029C229.241 66.7957 229.449 67.0518 229.585 67.3472C229.792 66.8816 230.171 66.5134 230.641 66.3181C231.112 66.1228 231.64 66.1153 232.116 66.2972C233.175 66.7712 234.068 67.5522 234.678 68.5391C235.288 69.526 235.588 70.6733 235.539 71.8326C235.539 75.0621 233.392 77.142 230.07 77.142ZM228.94 73.0885C229.304 73.2071 229.688 73.2545 230.07 73.228C231.399 73.228 231.618 72.7762 231.618 71.8326C231.618 71.0817 231.292 70.1846 230.661 69.9321C230.195 69.7483 229.819 69.391 229.611 68.9353C229.549 69.0803 229.469 69.2166 229.372 69.3407C228.939 69.9126 228.721 70.6179 228.754 71.3342C228.687 71.9251 228.748 72.5234 228.933 73.0885H228.94Z" fill="#525D7D"/>
<path d="M163.626 52.8084C163.489 52.808 163.354 52.7946 163.22 52.7685C162.716 52.6537 162.277 52.3477 161.994 51.9151C161.711 51.4824 161.608 50.9569 161.705 50.4494C168.922 15.5561 189.375 0 228.023 0C256.597 0 262.391 20.0349 267.448 48.3296C267.494 48.5832 267.489 48.8433 267.434 49.0951C267.379 49.3469 267.275 49.5852 267.127 49.7965C266.979 50.0077 266.791 50.1876 266.574 50.3259C266.357 50.4642 266.114 50.5581 265.86 50.6022C265.35 50.6843 264.828 50.5653 264.404 50.2703C263.98 49.9753 263.688 49.5273 263.587 49.0207C258.723 21.7759 253.62 3.91396 228.023 3.91396C191.09 3.91396 172.404 18.0679 165.559 51.2468C165.461 51.6876 165.217 52.0822 164.866 52.3658C164.514 52.6495 164.077 52.8056 163.626 52.8084Z" fill="#525D7D"/>
<path d="M206.892 239.103C190.744 239.103 170.57 235.94 166.151 220.882C164.862 216.469 163.439 211.997 162.064 207.665C156.974 191.644 151.711 175.104 151.711 157.913C151.711 148.902 155.499 127.346 190.624 121.511C190.878 121.469 191.139 121.477 191.389 121.535C191.64 121.593 191.877 121.7 192.087 121.85C192.296 122 192.474 122.19 192.609 122.409C192.745 122.628 192.836 122.872 192.877 123.126C192.953 123.638 192.827 124.159 192.525 124.579C192.224 124.999 191.771 125.286 191.262 125.379C180.551 127.146 155.625 133.871 155.625 157.94C155.625 174.486 160.795 190.766 165.798 206.509C167.181 210.854 168.609 215.353 169.912 219.799C173.839 233.202 194.764 235.202 206.892 235.202C217.043 235.302 227.09 233.141 236.303 228.876C236.774 228.664 237.308 228.644 237.794 228.818C238.28 228.993 238.679 229.35 238.908 229.813C239.018 230.045 239.081 230.296 239.094 230.553C239.107 230.81 239.069 231.066 238.983 231.308C238.896 231.55 238.763 231.773 238.59 231.963C238.418 232.153 238.21 232.308 237.977 232.418C228.24 236.927 217.621 239.21 206.892 239.103Z" fill="#525D7D"/>
<path d="M263.807 136.482C263.609 136.483 263.412 136.453 263.222 136.396L261.162 135.731C248.417 131.744 238.35 128.594 227.638 126.661C227.385 126.615 227.144 126.52 226.928 126.381C226.712 126.242 226.525 126.062 226.379 125.851C226.233 125.64 226.13 125.402 226.075 125.151C226.021 124.9 226.017 124.641 226.063 124.388C226.163 123.881 226.456 123.433 226.88 123.138C227.304 122.843 227.826 122.725 228.335 122.807C239.287 124.8 249.46 127.963 262.332 131.99L264.385 132.655C264.876 132.817 265.285 133.163 265.525 133.62C265.766 134.078 265.819 134.611 265.674 135.107C265.545 135.502 265.296 135.847 264.961 136.094C264.626 136.341 264.223 136.476 263.807 136.482Z" fill="#525D7D"/>
<path d="M257.866 200.522C257.751 200.531 257.635 200.531 257.52 200.522C257.014 200.421 256.566 200.129 256.271 199.705C255.976 199.281 255.857 198.759 255.939 198.249C257.668 188.358 258.524 178.334 258.497 168.293C258.497 166.074 258.457 163.794 258.378 161.515C258.377 161.004 258.572 160.513 258.923 160.142C259.275 159.771 259.755 159.549 260.265 159.521C260.777 159.521 261.269 159.717 261.64 160.07C262.012 160.422 262.233 160.904 262.258 161.415C262.338 163.734 262.378 166.067 262.378 168.326C262.408 178.599 261.532 188.854 259.76 198.973C259.661 199.405 259.421 199.792 259.078 200.072C258.735 200.352 258.309 200.511 257.866 200.522Z" fill="#525D7D"/>
<path d="M244.283 238.359C234.382 238.359 234.382 228.272 234.382 220.902C234.382 208.769 245.014 203.147 255.235 197.711C266.584 191.684 277.31 185.996 277.31 172.254C277.31 162.705 271.914 162.074 265.076 161.276C258.717 160.539 250.802 159.615 250.802 148.757C250.802 139.321 257.381 133.221 267.568 133.221C270.562 133.242 273.536 133.708 276.393 134.603L278.167 135.141C281.642 136.184 284.925 137.175 288.134 139.128C299.125 145.893 307.405 161.323 307.405 175.012C307.405 189.697 291.457 205.944 278.1 216.988C263.773 228.83 247.892 238.359 244.283 238.359ZM267.541 137.141C259.494 137.141 254.69 141.487 254.69 148.757C254.69 155.801 258.398 156.558 265.501 157.395C272.146 158.166 281.204 159.223 281.204 172.26C281.204 188.361 268.365 195.166 257.042 201.173C246.968 206.489 238.27 211.141 238.27 220.909C238.27 231.408 239.599 234.445 244.25 234.445C249.208 233.94 303.451 199.565 303.451 175.031C303.451 162.585 295.962 148.591 286.035 142.471C283.277 140.776 280.366 139.899 277.004 138.882L275.203 138.337C272.731 137.564 270.158 137.161 267.568 137.141H267.541Z" fill="#525D7D"/>
<path d="M268.903 223.673C268.55 223.67 268.203 223.573 267.9 223.392C267.596 223.211 267.346 222.953 267.176 222.643C263.368 215.58 257.288 209.147 249.599 204.037C249.175 203.743 248.882 203.297 248.78 202.791C248.679 202.286 248.777 201.761 249.054 201.326C249.348 200.9 249.796 200.605 250.303 200.504C250.81 200.402 251.337 200.501 251.772 200.781C259.992 206.243 266.511 213.161 270.624 220.789C270.748 221.016 270.825 221.264 270.853 221.52C270.88 221.777 270.856 222.036 270.782 222.283C270.709 222.53 270.587 222.76 270.424 222.96C270.261 223.16 270.061 223.325 269.834 223.447C269.546 223.597 269.227 223.675 268.903 223.673Z" fill="#525D7D"/>
<path d="M282.759 212.362C282.466 212.361 282.178 212.295 281.914 212.17C281.65 212.045 281.416 211.863 281.23 211.638C280.579 210.827 279.928 210.01 279.276 209.186C275.176 204.029 270.937 198.693 265.322 195.331C264.885 195.064 264.57 194.635 264.446 194.138C264.321 193.641 264.397 193.115 264.657 192.673C264.925 192.236 265.353 191.921 265.85 191.797C266.348 191.672 266.874 191.748 267.315 192.008C273.588 195.736 278.054 201.358 282.373 206.8C283.038 207.611 283.656 208.422 284.307 209.219C284.626 209.627 284.773 210.143 284.719 210.657C284.664 211.172 284.412 211.645 284.014 211.977C283.653 212.246 283.209 212.383 282.759 212.362Z" fill="#525D7D"/>
<path d="M294.959 199.665C294.644 199.667 294.334 199.592 294.055 199.446C290.474 197.579 287.211 195.06 284.088 192.621C281.206 190.256 278.132 188.135 274.898 186.282C274.444 186.031 274.107 185.612 273.956 185.116C273.806 184.62 273.855 184.085 274.093 183.624C274.345 183.171 274.763 182.833 275.259 182.683C275.756 182.533 276.291 182.582 276.751 182.82C280.176 184.777 283.433 187.015 286.486 189.512C289.643 191.957 292.627 194.256 295.903 195.964C296.361 196.211 296.704 196.627 296.859 197.124C297.014 197.62 296.969 198.158 296.733 198.622C296.56 198.941 296.304 199.206 295.991 199.39C295.679 199.574 295.322 199.669 294.959 199.665Z" fill="#525D7D"/>
<path d="M305.352 174.412H305.246C301.976 174.239 298.727 174 295.491 173.748C290.175 173.369 284.639 172.97 279.197 172.851C278.682 172.83 278.195 172.611 277.839 172.239C277.482 171.868 277.283 171.372 277.283 170.857C277.304 170.342 277.523 169.856 277.895 169.499C278.266 169.142 278.762 168.943 279.277 168.943C284.812 169.07 290.381 169.468 295.763 169.854C298.979 170.086 302.209 170.319 305.452 170.518C305.966 170.556 306.446 170.791 306.791 171.176C307.135 171.56 307.318 172.063 307.299 172.578C307.26 173.071 307.038 173.531 306.679 173.87C306.319 174.209 305.846 174.402 305.352 174.412Z" fill="#525D7D"/>
<path d="M270.95 162.199C270.58 162.199 270.219 162.093 269.907 161.894C269.475 161.609 269.171 161.168 269.058 160.664C268.945 160.159 269.033 159.63 269.302 159.189C273.859 151.896 279.284 145.182 285.456 139.194C285.642 139.016 285.862 138.876 286.102 138.783C286.342 138.69 286.598 138.645 286.856 138.651C287.113 138.657 287.367 138.714 287.603 138.819C287.838 138.923 288.05 139.074 288.227 139.261C288.405 139.446 288.544 139.665 288.636 139.905C288.729 140.144 288.774 140.4 288.767 140.657C288.761 140.913 288.704 141.166 288.6 141.401C288.496 141.636 288.347 141.848 288.161 142.025C282.218 147.786 276.995 154.246 272.605 161.263C272.429 161.544 272.185 161.777 271.896 161.941C271.608 162.105 271.282 162.193 270.95 162.199Z" fill="#525D7D"/>
<path d="M153.844 165.335C153.493 165.336 153.149 165.242 152.847 165.063C145.97 160.976 141.551 155.54 141.551 151.214C141.551 141.386 152.621 130.356 167.467 130.309C167.726 130.304 167.984 130.35 168.225 130.445C168.466 130.541 168.686 130.683 168.871 130.865C169.057 131.046 169.205 131.262 169.306 131.501C169.407 131.74 169.459 131.997 169.46 132.256C169.46 132.778 169.256 133.279 168.89 133.652C168.525 134.024 168.028 134.239 167.506 134.25C154.083 134.296 145.518 144.343 145.518 151.241C145.518 153.613 148.84 158.092 154.927 161.72C155.357 161.994 155.665 162.423 155.789 162.917C155.912 163.411 155.842 163.934 155.592 164.378C155.413 164.68 155.157 164.928 154.849 165.096C154.542 165.265 154.195 165.347 153.844 165.335Z" fill="#525D7D"/>
<path d="M41.6616 234.605C30.365 234.605 28.0259 228.286 28.0259 222.983C28.0259 216.172 32.3386 213.328 36.1462 210.809C38.452 209.294 40.6249 207.852 41.7347 205.646C42.14 204.829 42.5321 203.885 42.9441 202.895C44.6053 198.908 46.672 193.884 51.7754 193.884C52.1616 193.893 52.539 194 52.8718 194.196C56.6661 196.097 70.1158 202.323 83.5587 202.323C117.668 202.323 125.117 186.07 132.998 168.859C135.656 163.131 138.314 157.203 142.089 152.047C142.4 151.636 142.858 151.361 143.367 151.28C143.876 151.2 144.397 151.32 144.82 151.615C145.233 151.926 145.509 152.386 145.589 152.896C145.67 153.407 145.549 153.929 145.252 154.353C141.736 159.19 139.218 164.679 136.56 170.487C128.506 188.063 120.186 206.237 83.5587 206.237C69.5177 206.237 55.6494 199.984 51.37 197.851C49.31 198.144 48.1139 200.675 46.559 204.417C46.1404 205.433 45.7084 206.483 45.23 207.42C43.6551 210.57 40.9306 212.371 38.2992 214.105C34.7441 216.451 31.9398 218.305 31.9398 223.009C31.9398 226.578 33.0296 230.671 41.5154 230.718C43.0105 230.505 55.4102 228.864 73.7839 228.864H78.9138C110.498 228.864 123.569 228.864 156.189 185.206C156.343 184.999 156.535 184.825 156.756 184.694C156.977 184.562 157.221 184.475 157.476 184.438C157.73 184.401 157.989 184.415 158.238 184.478C158.487 184.541 158.721 184.653 158.927 184.807C159.337 185.123 159.607 185.586 159.682 186.098C159.756 186.611 159.629 187.132 159.326 187.551C125.536 232.758 110.93 232.758 78.9205 232.758H73.7905C54.5929 232.758 42.0669 234.565 41.9407 234.585C41.8482 234.598 41.755 234.605 41.6616 234.605Z" fill="#525D7D"/>
<path d="M77.3193 232.757C76.7975 232.747 76.3006 232.532 75.9353 232.16C75.57 231.787 75.3655 231.286 75.3656 230.764V230.319C75.318 221.459 74.7456 212.61 73.6512 203.818C73.6205 203.563 73.6404 203.305 73.7097 203.058C73.779 202.811 73.8962 202.58 74.0548 202.378C74.2134 202.176 74.4102 202.008 74.634 201.882C74.8577 201.756 75.1041 201.676 75.359 201.645C75.8737 201.592 76.3889 201.741 76.7956 202.061C77.2024 202.381 77.4688 202.847 77.5385 203.36C78.6518 212.304 79.2331 221.306 79.2795 230.319V230.764C79.2796 231.287 79.0741 231.789 78.7074 232.162C78.3407 232.535 77.8422 232.749 77.3193 232.757Z" fill="#525D7D"/>
<path d="M104.252 231.387C103.842 231.385 103.442 231.256 103.108 231.018C102.774 230.78 102.521 230.445 102.385 230.058L101.72 228.012C100.36 223.378 98.6978 218.838 96.7429 214.423C95.6027 212.114 94.3222 209.877 92.9087 207.724C92.3106 206.774 91.7059 205.817 91.1278 204.84C90.8779 204.396 90.8075 203.873 90.9311 203.379C91.0547 202.885 91.3629 202.457 91.7923 202.182C92.2395 201.922 92.7702 201.846 93.2724 201.97C93.7746 202.094 94.2088 202.409 94.4836 202.847C95.0484 203.79 95.6332 204.727 96.218 205.658C97.7172 207.945 99.0753 210.322 100.285 212.775C102.315 217.344 104.04 222.044 105.448 226.842L106.112 228.876C106.262 229.371 106.214 229.905 105.977 230.365C105.74 230.825 105.333 231.175 104.843 231.341C104.649 231.385 104.45 231.4 104.252 231.387Z" fill="#525D7D"/>
<path d="M127.703 219.779C127.355 219.78 127.013 219.688 126.713 219.513C126.413 219.338 126.165 219.086 125.995 218.782C123.463 214.284 119.589 210.596 115.848 207.027C114.08 205.34 112.246 203.592 110.572 201.778C110.221 201.395 110.033 200.891 110.048 200.373C110.063 199.854 110.279 199.362 110.651 199C111.037 198.656 111.543 198.475 112.06 198.496C112.577 198.517 113.065 198.738 113.422 199.113C115.017 200.841 116.745 202.436 118.526 204.183C122.473 207.951 126.56 211.845 129.377 216.855C129.63 217.307 129.694 217.84 129.555 218.338C129.415 218.837 129.084 219.259 128.633 219.513C128.35 219.68 128.03 219.771 127.703 219.779Z" fill="#525D7D"/>
<path d="M144.541 204.88C144.23 204.878 143.924 204.802 143.647 204.66C143.37 204.519 143.13 204.314 142.946 204.063C138.567 197.936 132.919 192.101 125.669 186.294C125.468 186.133 125.301 185.934 125.178 185.709C125.054 185.483 124.976 185.236 124.948 184.98C124.921 184.725 124.944 184.466 125.016 184.219C125.088 183.973 125.209 183.743 125.37 183.543C125.531 183.342 125.73 183.175 125.955 183.051C126.18 182.928 126.428 182.85 126.683 182.822C126.939 182.794 127.198 182.817 127.444 182.889C127.691 182.962 127.921 183.082 128.121 183.244C135.643 189.297 141.531 195.364 146.123 201.783C146.272 201.992 146.379 202.229 146.437 202.48C146.495 202.731 146.503 202.99 146.461 203.244C146.418 203.498 146.326 203.741 146.189 203.959C146.052 204.177 145.874 204.366 145.664 204.514C145.337 204.751 144.944 204.879 144.541 204.88Z" fill="#525D7D"/>
<path d="M156.196 181.723C155.835 181.72 155.481 181.619 155.173 181.431C152.98 180.102 150.827 178.64 148.741 177.244C144.366 174.181 139.785 171.421 135.032 168.985C134.572 168.748 134.222 168.342 134.056 167.852C133.89 167.362 133.92 166.827 134.141 166.36C134.255 166.129 134.412 165.923 134.605 165.754C134.798 165.584 135.023 165.454 135.266 165.372C135.509 165.289 135.766 165.255 136.023 165.272C136.279 165.289 136.529 165.356 136.76 165.469C141.669 167.982 146.4 170.828 150.92 173.988C153.067 175.424 155.1 176.786 157.226 178.095C157.447 178.227 157.64 178.402 157.793 178.61C157.946 178.817 158.057 179.052 158.119 179.302C158.18 179.552 158.192 179.812 158.153 180.067C158.114 180.322 158.025 180.566 157.891 180.786C157.715 181.077 157.466 181.316 157.168 181.48C156.871 181.645 156.536 181.728 156.196 181.723Z" fill="#525D7D"/>
<path d="M211.962 137.267C210.168 137.267 203.881 137.081 198.153 134.702C192.173 132.21 188.977 128.157 188.977 122.987C189.015 121.151 189.177 119.319 189.462 117.505C189.72 115.86 189.869 114.199 189.907 112.534C189.907 112.109 189.907 111.69 189.86 111.265C189.827 110.75 189.994 110.242 190.328 109.848C190.661 109.454 191.134 109.204 191.648 109.152C191.905 109.13 192.163 109.159 192.409 109.238C192.654 109.316 192.881 109.443 193.078 109.609C193.274 109.776 193.436 109.98 193.553 110.21C193.67 110.439 193.741 110.689 193.761 110.946C193.807 111.471 193.827 112.003 193.827 112.534C193.789 114.373 193.627 116.207 193.342 118.023C193.082 119.666 192.931 121.324 192.891 122.987C192.891 133.227 211.769 133.347 211.962 133.347C222.687 133.347 226.495 129.645 226.495 119.206C226.495 118.136 226.495 117.06 226.428 115.983C226.362 114.907 226.368 113.757 226.368 112.661C226.347 110.881 226.472 109.103 226.74 107.345C226.835 106.837 227.122 106.386 227.542 106.086C227.962 105.786 228.483 105.661 228.993 105.736C229.502 105.829 229.955 106.116 230.256 106.536C230.557 106.957 230.684 107.478 230.608 107.989C230.37 109.541 230.262 111.11 230.282 112.681C230.282 113.75 230.282 114.827 230.349 115.903C230.415 116.98 230.409 118.13 230.409 119.226C230.409 131.885 224.893 137.267 211.962 137.267Z" fill="#525D7D"/>
<path d="M172.884 169.971L172.991 167.713C173.383 168.064 173.83 168.347 174.314 168.553C174.777 168.747 175.27 168.858 175.771 168.881C176.027 168.897 176.284 168.882 176.536 168.836C176.73 168.802 176.918 168.737 177.091 168.644C177.222 168.566 177.334 168.46 177.419 168.333C177.502 168.214 177.547 168.074 177.547 167.93C177.56 167.74 177.512 167.551 177.409 167.392C177.286 167.213 177.131 167.058 176.954 166.934C176.74 166.774 176.515 166.631 176.279 166.506L175.426 166.098C174.751 165.805 174.156 165.357 173.689 164.788C173.379 164.333 173.205 163.798 173.185 163.248C173.165 162.697 173.301 162.152 173.578 161.675C173.806 161.302 174.12 160.99 174.494 160.764C174.898 160.53 175.339 160.366 175.798 160.281C176.308 160.194 176.826 160.163 177.343 160.191C177.798 160.209 178.251 160.263 178.698 160.351C179.082 160.418 179.457 160.531 179.813 160.69L179.712 162.825C179.547 162.689 179.364 162.575 179.169 162.486C178.97 162.385 178.765 162.298 178.555 162.225C178.351 162.161 178.144 162.111 177.935 162.073C177.732 162.044 177.527 162.034 177.323 162.044C177.085 162.026 176.847 162.038 176.612 162.078C176.421 162.114 176.235 162.174 176.058 162.256C175.919 162.333 175.798 162.439 175.703 162.567C175.618 162.689 175.568 162.833 175.56 162.983C175.554 163.146 175.594 163.309 175.675 163.451C175.769 163.606 175.892 163.741 176.037 163.85C176.225 163.997 176.424 164.129 176.632 164.247L177.418 164.638C177.788 164.816 178.147 165.015 178.493 165.235C178.791 165.426 179.06 165.659 179.292 165.927C179.514 166.177 179.685 166.467 179.797 166.783C179.907 167.137 179.949 167.509 179.922 167.879C179.905 168.353 179.771 168.815 179.531 169.224C179.312 169.6 178.996 169.91 178.616 170.121C178.211 170.358 177.764 170.513 177.299 170.576C176.78 170.663 176.253 170.693 175.727 170.665C175.193 170.64 174.663 170.564 174.143 170.44C173.704 170.341 173.281 170.183 172.884 169.971Z" fill="#F2BE42"/>
<path d="M187.633 171.136L181.512 170.845L181.998 160.631L187.887 160.911L187.798 162.788L184.207 162.617L184.099 164.888L187.445 165.047L187.356 166.911L184.01 166.752L183.899 169.091L187.721 169.273L187.633 171.136Z" fill="#F2BE42"/>
<path d="M197.833 171.621L195.194 171.495L193.732 168.7C193.637 168.508 193.532 168.321 193.418 168.139C193.326 167.995 193.223 167.858 193.11 167.729C193.014 167.618 192.898 167.525 192.769 167.454C192.649 167.388 192.516 167.349 192.379 167.34L191.767 167.311L191.576 171.323L189.278 171.214L189.763 161L193.408 161.173C195.884 161.291 197.078 162.256 196.992 164.07C196.979 164.408 196.908 164.741 196.782 165.055C196.657 165.344 196.488 165.612 196.28 165.849C195.82 166.339 195.218 166.672 194.558 166.803C194.716 166.866 194.863 166.951 194.996 167.056C195.137 167.178 195.267 167.312 195.386 167.456C195.52 167.605 195.64 167.766 195.745 167.936C195.859 168.092 195.96 168.256 196.049 168.428L197.833 171.621ZM191.98 162.837L191.845 165.679L192.837 165.726C193.053 165.745 193.271 165.722 193.477 165.657C193.684 165.592 193.875 165.487 194.041 165.347C194.2 165.221 194.328 165.061 194.417 164.879C194.506 164.697 194.553 164.497 194.555 164.295C194.597 163.411 194.089 162.909 193.015 162.858L191.98 162.837Z" fill="#F2BE42"/>
<path d="M201.096 171.775L198.784 171.665L199.27 161.451L201.582 161.561L201.096 171.775Z" fill="#F2BE42"/>
<path d="M212.603 172.322L210.277 172.212L206.366 165.592C206.194 165.312 206.04 165.023 205.903 164.725C205.886 165.078 205.859 165.636 205.824 166.37L205.557 171.987L203.381 171.884L203.867 161.67L206.41 161.791L210.195 168.2C210.372 168.495 210.522 168.775 210.672 169.054C210.664 168.6 210.686 168.146 210.737 167.694L211.005 162.05L213.181 162.153L212.603 172.322Z" fill="#F2BE42"/>
<path d="M223.906 172.858L221.404 172.74L220.791 170.434L217.159 170.261L216.331 172.498L213.842 172.38L218.04 162.342L220.76 162.472L223.906 172.858ZM220.346 168.6L219.408 165.12C219.333 164.815 219.293 164.502 219.288 164.187C219.248 164.491 219.174 164.789 219.069 165.077L217.79 168.478L220.346 168.6Z" fill="#F2BE42"/>
<path d="M184.163 184.84L183.993 188.431L181.694 188.322L182.18 178.107L185.784 178.279C188.354 178.401 189.595 179.55 189.492 181.713C189.485 182.186 189.37 182.651 189.156 183.073C188.942 183.495 188.635 183.863 188.258 184.149C187.393 184.778 186.327 185.067 185.262 184.961L184.163 184.84ZM184.397 179.917L184.246 183.099L185.144 183.142C186.381 183.201 187.019 182.686 187.07 181.625C187.12 180.564 186.533 180.018 185.295 179.959L184.397 179.917Z" fill="#F2BE42"/>
<path d="M196.724 189.034L190.644 188.745L191.129 178.531L193.442 178.641L193.045 186.992L196.812 187.171L196.724 189.034Z" fill="#F2BE42"/>
<path d="M206.347 184.994C206.201 188.059 204.7 189.523 201.844 189.388C198.988 189.252 197.672 187.685 197.896 184.688L198.176 178.799L200.488 178.909L200.207 184.839C200.128 186.484 200.728 187.344 202.02 187.406C203.312 187.467 203.963 186.694 204.038 185.103L204.324 179.091L206.622 179.2L206.347 184.994Z" fill="#F2BE42"/>
<path d="M207.911 189.104L208.018 186.846C208.406 187.202 208.854 187.487 209.342 187.686C209.804 187.881 210.297 187.992 210.798 188.014C211.05 188.031 211.302 188.015 211.55 187.968C211.745 187.937 211.932 187.872 212.105 187.776C212.243 187.703 212.36 187.596 212.447 187.466C212.523 187.345 212.567 187.206 212.575 187.063C212.59 186.871 212.537 186.679 212.423 186.524C212.308 186.343 212.158 186.188 211.981 186.067C211.766 185.91 211.54 185.767 211.306 185.639L210.44 185.23C209.771 184.934 209.181 184.486 208.716 183.921C208.344 183.415 208.166 182.793 208.214 182.166C208.226 181.693 208.355 181.231 208.591 180.821C208.826 180.449 209.144 180.138 209.52 179.911C209.924 179.676 210.365 179.513 210.825 179.428C211.334 179.34 211.853 179.31 212.369 179.338C212.825 179.355 213.278 179.408 213.725 179.497C214.114 179.563 214.493 179.677 214.854 179.837L214.752 181.973C214.585 181.839 214.403 181.725 214.209 181.633C214.011 181.532 213.805 181.445 213.595 181.372C213.387 181.308 213.175 181.257 212.961 181.22C212.763 181.19 212.563 181.181 212.363 181.191C212.126 181.173 211.887 181.184 211.652 181.225C211.461 181.261 211.275 181.321 211.099 181.404C210.96 181.481 210.838 181.586 210.743 181.714C210.658 181.837 210.609 181.981 210.601 182.13C210.588 182.294 210.628 182.458 210.715 182.599C210.806 182.756 210.929 182.892 211.078 182.998C211.264 183.147 211.463 183.279 211.672 183.394L212.458 183.786C212.828 183.963 213.187 184.162 213.534 184.382C213.832 184.573 214.101 184.806 214.332 185.074C214.55 185.324 214.717 185.615 214.823 185.929C214.938 186.283 214.985 186.655 214.962 187.026C214.946 187.5 214.811 187.962 214.571 188.371C214.347 188.747 214.026 189.057 213.642 189.267C213.218 189.515 212.746 189.669 212.258 189.719C211.743 189.806 211.221 189.836 210.699 189.809C210.161 189.783 209.626 189.707 209.102 189.583C208.685 189.478 208.284 189.317 207.911 189.104Z" fill="#F2BE42"/>
</svg>
