<svg width="24" height="24" viewBox="0 0 24 24" fill="none" xmlns="http://www.w3.org/2000/svg">
<mask id="mask0_847_478" style="mask-type:alpha" maskUnits="userSpaceOnUse" x="0" y="0" width="24" height="24">
<rect width="24" height="24" fill="#C4C4C4"/>
</mask>
<g mask="url(#mask0_847_478)">
<path d="M20.8066 12.0931C20.7454 9.25127 19.7672 7.0201 17.784 5.24848C17.4048 4.90914 17.2077 4.52239 17.3375 4.02092C17.5436 3.23781 18.4723 2.95274 19.105 3.48443C20.0775 4.30361 20.8969 5.28884 21.5251 6.3943C25.1336 12.7052 21.793 20.7135 14.7697 22.5896C10.0883 23.8405 4.91974 21.7261 2.57178 17.4842C0.25268 13.2939 0.510966 9.18052 3.27315 5.26085C3.7121 4.63711 4.28982 4.10473 4.83799 3.56548C4.94049 3.46058 5.06353 3.37796 5.19942 3.32277C5.3353 3.26759 5.48111 3.24104 5.62773 3.24478C5.77434 3.24852 5.91861 3.28247 6.05151 3.34451C6.1844 3.40655 6.30307 3.49534 6.40009 3.60533C6.50139 3.71385 6.57955 3.84185 6.62981 3.98154C6.68007 4.12123 6.70138 4.26968 6.69245 4.41787C6.68352 4.56605 6.64453 4.71087 6.57785 4.84351C6.51118 4.97615 6.41821 5.09384 6.3046 5.18941C5.27076 6.10853 4.46086 7.19114 3.93398 8.46885C1.75638 13.7322 4.93279 19.6371 10.5375 20.6064C11.6756 20.8043 12.8416 20.7746 13.9682 20.5192C15.0948 20.2637 16.1595 19.7874 17.1009 19.1179C18.0423 18.4484 18.8416 17.5989 19.4526 16.6186C20.0637 15.6383 20.4744 14.5466 20.6609 13.4066C20.742 12.9092 20.7729 12.4036 20.8066 12.0931Z" fill="#F2BE42"/>
<path d="M13.1111 6.5146C13.1111 7.97091 13.1152 9.42791 13.1111 10.8842C13.1111 11.5979 12.6021 12.074 11.92 12.028C11.6706 12.0065 11.4362 11.8996 11.2566 11.7252C11.0769 11.5508 10.9631 11.3197 10.9342 11.0711C10.9267 10.9941 10.9253 10.9172 10.9253 10.8403C10.9253 7.96107 10.9271 5.08234 10.9308 2.20407C10.9302 1.98313 10.9782 1.76476 11.0716 1.56453C11.2866 1.12695 11.7943 0.919491 12.271 1.02871C12.5116 1.08345 12.7261 1.21913 12.8787 1.41307C13.0312 1.60701 13.1125 1.84744 13.1091 2.09416C13.1166 3.56764 13.1091 5.04112 13.1091 6.5146H13.1111Z" fill="#F2BE42"/>
</g>
</svg>
