<svg width="90" height="90" viewBox="0 0 90 90" fill="none" xmlns="http://www.w3.org/2000/svg">
<g clip-path="url(#clip0_759_1059)">
<path d="M68.9445 27.6488C68.2812 27.4478 67.6775 27.0868 67.1864 26.5977C66.6953 26.1086 66.332 25.5063 66.1283 24.8438C64.9799 20.9515 63.0538 17.3326 60.4664 14.2062C57.8791 11.0797 54.6843 8.51076 51.0754 6.65467C47.4666 4.79859 43.5186 3.694 39.4705 3.40774C35.4225 3.12149 31.3584 3.65952 27.5242 4.98929C23.6901 6.31905 20.1656 8.4129 17.164 11.1441C14.1624 13.8753 11.7462 17.1872 10.0615 20.8792C8.37687 24.5712 7.45878 28.5666 7.36282 32.6236C7.26686 36.6807 7.99503 40.7151 9.50326 44.4826C9.84852 45.2766 9.92135 46.1626 9.71039 47.0023C9.49943 47.8421 9.01654 48.5885 8.33701 49.1251C5.35099 51.3413 3.01968 54.3236 1.58983 57.7563C0.159977 61.189 -0.315227 64.9444 0.214514 68.6251C1.04121 73.6009 3.62448 78.1154 7.49545 81.3492C11.3664 84.583 16.2685 86.3219 21.312 86.2501H52.5008V57.8026L47.652 62.6513C46.9448 63.3344 45.9975 63.7124 45.0143 63.7038C44.031 63.6953 43.0905 63.3009 42.3952 62.6056C41.6999 61.9104 41.3055 60.9698 41.297 59.9866C41.2884 59.0033 41.6664 58.0561 42.3495 57.3488L48.297 51.4013C50.4067 49.2923 53.2677 48.1075 56.2508 48.1075C59.2339 48.1075 62.0948 49.2923 64.2045 51.4013L70.152 57.3488C70.5102 57.6948 70.7959 58.1085 70.9924 58.5661C71.1889 59.0236 71.2924 59.5156 71.2967 60.0136C71.301 60.5115 71.2062 61.0053 71.0176 61.4661C70.829 61.927 70.5506 62.3457 70.1985 62.6978C69.8464 63.0499 69.4277 63.3284 68.9668 63.5169C68.506 63.7055 68.0122 63.8003 67.5143 63.796C67.0163 63.7917 66.5243 63.6882 66.0667 63.4917C65.6092 63.2952 65.1954 63.0095 64.8495 62.6513L60.0008 57.8026V86.2013C67.465 86.052 74.6186 83.1861 80.1212 78.1405C85.6238 73.0949 89.0978 66.2159 89.892 58.7926C90.4879 51.9887 88.7338 45.1861 84.922 39.5189C81.1101 33.8516 75.4709 29.6621 68.9445 27.6488Z" fill="#5DC5CC"/>
</g>
<defs>
<clipPath id="clip0_759_1059">
<rect width="90" height="90" fill="white"/>
</clipPath>
</defs>
</svg>
