<svg width="30" height="30" viewBox="0 0 30 30" fill="none" xmlns="http://www.w3.org/2000/svg">
<path d="M15 0C12.0333 0 9.13319 0.879735 6.66645 2.52796C4.19971 4.17618 2.27713 6.51886 1.14181 9.25975C0.00649929 12.0006 -0.290551 15.0166 0.288227 17.9264C0.867006 20.8361 2.29562 23.5088 4.3934 25.6066C6.49119 27.7044 9.16394 29.133 12.0737 29.7118C14.9834 30.2906 17.9994 29.9935 20.7403 28.8582C23.4811 27.7229 25.8238 25.8003 27.472 23.3335C29.1203 20.8668 30 17.9667 30 15C30 11.0218 28.4196 7.20644 25.6066 4.3934C22.7936 1.58035 18.9783 0 15 0ZM15 27.5C12.5277 27.5 10.111 26.7669 8.05538 25.3934C5.99976 24.0198 4.39761 22.0676 3.45151 19.7835C2.50542 17.4995 2.25788 14.9861 2.74019 12.5614C3.22251 10.1366 4.41301 7.90932 6.16117 6.16116C7.90933 4.41301 10.1366 3.2225 12.5614 2.74018C14.9861 2.25787 17.4995 2.50541 19.7835 3.45151C22.0676 4.3976 24.0199 5.99976 25.3934 8.05537C26.7669 10.111 27.5 12.5277 27.5 15C27.5 18.3152 26.183 21.4946 23.8388 23.8388C21.4946 26.183 18.3152 27.5 15 27.5Z" fill="#F2BE42"/>
<path d="M21 14.0008H11L14.29 10.7108C14.3837 10.6178 14.4581 10.5072 14.5089 10.3854C14.5597 10.2635 14.5858 10.1328 14.5858 10.0008C14.5858 9.86878 14.5597 9.73807 14.5089 9.61621C14.4581 9.49436 14.3837 9.38375 14.29 9.29079C14.1026 9.10454 13.8492 9 13.585 9C13.3208 9 13.0674 9.10454 12.88 9.29079L8.59 13.5908C8.21441 13.9641 8.00223 14.4712 8 15.0008C8.00487 15.5269 8.21684 16.0299 8.59 16.4008L12.88 20.7008C12.9732 20.7934 13.0838 20.8667 13.2054 20.9165C13.3269 20.9664 13.4571 20.9918 13.5885 20.9913C13.7199 20.9909 13.8499 20.9645 13.9712 20.9138C14.0924 20.8631 14.2024 20.789 14.295 20.6958C14.3876 20.6025 14.4609 20.492 14.5107 20.3704C14.5606 20.2488 14.586 20.1186 14.5856 19.9872C14.5851 19.8558 14.5588 19.7258 14.508 19.6046C14.4573 19.4834 14.3832 19.3734 14.29 19.2808L11 16.0008H21C21.2652 16.0008 21.5196 15.8954 21.7071 15.7079C21.8946 15.5204 22 15.266 22 15.0008C22 14.7356 21.8946 14.4812 21.7071 14.2937C21.5196 14.1061 21.2652 14.0008 21 14.0008Z" fill="#F2BE42"/>
</svg>
