<svg width="30" height="30" viewBox="0 0 30 30" fill="none" xmlns="http://www.w3.org/2000/svg">
<path d="M19.9999 10.0002C19.7655 9.76582 19.4476 9.63418 19.1161 9.63418C18.7847 9.63418 18.4668 9.76582 18.2324 10.0002L14.9999 13.2327L11.7674 10.0002C11.5317 9.77247 11.2159 9.64647 10.8882 9.64932C10.5604 9.65217 10.2469 9.78363 10.0151 10.0154C9.78338 10.2471 9.65192 10.5607 9.64907 10.8884C9.64622 11.2162 9.77222 11.5319 9.99991 11.7677L13.2324 15.0002L9.99991 18.2327C9.77222 18.4684 9.64622 18.7842 9.64907 19.1119C9.65192 19.4397 9.78338 19.7532 10.0151 19.9849C10.2469 20.2167 10.5604 20.3482 10.8882 20.351C11.2159 20.3539 11.5317 20.2279 11.7674 20.0002L14.9999 16.7677L18.2324 20.0002C18.4682 20.2279 18.7839 20.3539 19.1116 20.351C19.4394 20.3482 19.7529 20.2167 19.9847 19.9849C20.2164 19.7532 20.3479 19.4397 20.3507 19.1119C20.3536 18.7842 20.2276 18.4684 19.9999 18.2327L16.7674 15.0002L19.9999 11.7677C20.2342 11.5333 20.3659 11.2154 20.3659 10.8839C20.3659 10.5525 20.2342 10.2346 19.9999 10.0002Z" fill="#313971"/>
<path d="M15 0C12.0333 0 9.13319 0.879735 6.66645 2.52796C4.19972 4.17618 2.27713 6.51886 1.14181 9.25975C0.00649929 12.0006 -0.290551 15.0166 0.288228 17.9264C0.867006 20.8361 2.29562 23.5088 4.3934 25.6066C6.49119 27.7044 9.16394 29.133 12.0737 29.7118C14.9834 30.2906 17.9994 29.9935 20.7403 28.8582C23.4812 27.7229 25.8238 25.8003 27.472 23.3336C29.1203 20.8668 30 17.9667 30 15C29.9957 11.0231 28.414 7.21026 25.6019 4.39815C22.7897 1.58604 18.9769 0.00430135 15 0ZM15 27.5C12.5277 27.5 10.111 26.7669 8.05538 25.3934C5.99976 24.0199 4.39761 22.0676 3.45151 19.7835C2.50542 17.4995 2.25788 14.9861 2.74019 12.5614C3.22251 10.1366 4.41302 7.90932 6.16117 6.16117C7.90933 4.41301 10.1366 3.2225 12.5614 2.74018C14.9861 2.25787 17.4995 2.50541 19.7836 3.45151C22.0676 4.3976 24.0199 5.99976 25.3934 8.05537C26.7669 10.111 27.5 12.5277 27.5 15C27.4964 18.3141 26.1782 21.4914 23.8348 23.8348C21.4914 26.1782 18.3141 27.4964 15 27.5Z" fill="#313971"/>
</svg>
