<svg width="90" height="90" viewBox="0 0 90 90" fill="none" xmlns="http://www.w3.org/2000/svg">
<path d="M79.3121 15.8259C73.0949 8.36599 65.1628 3.45779 55.7134 1.17419C50.1182 -0.385054 41.1071 0.0147505 39.9692 0.137044C32.6082 0.886883 25.562 3.50522 19.5015 7.74276C9.59271 14.6414 3.36618 24.0094 0.821846 35.8468C-0.389066 43.2314 0.0608981 48.6993 0.183403 49.8023C1.36133 60.3854 5.74795 69.4187 13.2679 76.9092C20.1399 83.767 28.4561 87.8968 38.0444 89.449C39.4014 89.6677 40.7843 89.7171 42.1554 89.8605C45.5055 90.2133 48.7306 89.7994 49.8332 89.6841C58.9409 88.7152 66.9956 85.244 73.969 79.3362C81.9059 72.6195 87.0793 64.1483 89.0465 53.9368C91.8075 39.7625 88.5753 26.9452 79.3121 15.8259ZM44.9377 15.0874C47.4113 15.0592 49.5505 17.1711 49.5693 19.664C49.5727 20.8788 49.099 22.0465 48.2499 22.9166C47.4007 23.7867 46.2438 24.2899 45.0272 24.3182C43.7949 24.3227 42.6106 23.8411 41.7322 22.9783C40.8538 22.1154 40.3522 20.9412 40.3367 19.7111C40.3605 18.4975 40.852 17.3398 41.7089 16.4787C42.5658 15.6175 43.7222 15.1193 44.9377 15.0874V15.0874ZM49.5882 51.4345C49.5882 58.3331 49.5882 65.238 49.5882 72.1491C49.5882 74.1599 48.6458 75.1053 46.6245 75.1124C45.4466 75.1124 44.2686 75.1124 43.0907 75.1124C41.3073 75.0959 40.2943 74.0964 40.2943 72.3326C40.2943 58.3488 40.2943 44.3634 40.2943 30.3765C40.2943 28.7302 41.1966 27.7283 42.8645 27.6437C44.2404 27.5755 45.628 27.5755 47.0038 27.6437C48.7118 27.7307 49.5787 28.7185 49.5811 30.4541C49.5858 37.4483 49.5882 44.4418 49.5882 51.4345Z" fill="#FB4953"/>
</svg>
