<svg width="21" height="21" viewBox="0 0 21 21" fill="none" xmlns="http://www.w3.org/2000/svg">
<path d="M18.906 10.5888C18.8476 7.87612 17.9139 5.74639 16.0209 4.05533C15.6589 3.73141 15.4708 3.36225 15.5947 2.88359C15.7914 2.13608 16.6779 1.86397 17.2818 2.37148C18.2101 3.15342 18.9922 4.09385 19.5919 5.14905C23.0363 11.173 19.8476 18.8172 13.1437 20.6079C8.67504 21.802 3.74152 19.7837 1.50032 15.7347C-0.713341 11.7349 -0.466799 7.80859 2.16979 4.06713C2.58879 3.47175 3.14024 2.96358 3.66349 2.44886C3.76133 2.34872 3.87877 2.26985 4.00848 2.21718C4.13819 2.16451 4.27737 2.13916 4.41732 2.14273C4.55727 2.1463 4.69497 2.17871 4.82183 2.23793C4.94868 2.29714 5.06195 2.3819 5.15456 2.48689C5.25125 2.59048 5.32586 2.71266 5.37384 2.84599C5.42181 2.97933 5.44215 3.12103 5.43363 3.26248C5.4251 3.40393 5.38789 3.54217 5.32424 3.66877C5.2606 3.79538 5.17185 3.90772 5.06342 3.99894C4.07658 4.87627 3.3035 5.90967 2.80058 7.12928C0.721994 12.1533 3.75397 17.7897 9.10387 18.7149C10.1902 18.9038 11.3032 18.8755 12.3786 18.6317C13.4539 18.3878 14.4702 17.9332 15.3688 17.2941C16.2674 16.6551 17.0304 15.8442 17.6136 14.9085C18.1969 13.9727 18.5889 12.9307 18.767 11.8425C18.8444 11.3678 18.8739 10.8852 18.906 10.5888Z" fill="#F2BE42"/>
<path d="M11.5608 5.26387C11.5608 6.65396 11.5647 8.04471 11.5608 9.43481C11.5608 10.1161 11.0749 10.5705 10.4238 10.5266C10.1857 10.5061 9.96204 10.404 9.79058 10.2375C9.61912 10.0711 9.51043 9.85053 9.48289 9.61316C9.47568 9.53972 9.47437 9.46628 9.47437 9.39284C9.47437 6.64456 9.47611 3.89672 9.47961 1.14932C9.479 0.938426 9.5249 0.729992 9.61403 0.538858C9.81927 0.121174 10.3038 -0.0768487 10.7589 0.0274083C10.9885 0.0796569 11.1933 0.20917 11.3389 0.394288C11.4845 0.579406 11.5622 0.808906 11.5588 1.04441C11.5661 2.45089 11.5588 3.85738 11.5588 5.26387H11.5608Z" fill="#F2BE42"/>
</svg>
