<svg width="353" height="299" viewBox="0 0 353 299" fill="none" xmlns="http://www.w3.org/2000/svg">
<path d="M321.784 126.661C321.798 143.174 318.555 159.528 312.242 174.787C305.928 190.046 296.669 203.91 284.992 215.587C273.315 227.263 259.451 236.523 244.192 242.836C228.933 249.15 212.579 252.392 196.066 252.379C191.328 252.38 186.594 252.115 181.886 251.585C162.237 249.386 143.392 242.554 126.898 231.652C109.919 220.439 95.8997 205.291 86.0329 187.497C76.5657 170.413 71.2343 151.349 70.4662 131.833C70.3943 130.12 70.359 128.4 70.3604 126.673C70.4031 93.9408 83.2106 62.5155 106.06 39.0778C128.91 15.6401 160 2.03842 192.721 1.1641C225.441 0.289783 257.213 12.2118 281.282 34.3958C305.351 56.5798 319.818 87.2764 321.609 119.96C321.724 122.181 321.783 124.414 321.784 126.661Z" fill="#FFF0E3"/>
<path d="M202.656 84.1896C182.934 84.1962 163.306 81.4675 144.334 76.0814C126.496 71.0288 109.413 63.6148 93.5391 54.0362L94.5105 52.4277C110.24 61.9209 127.168 69.2687 144.844 74.276C170.843 81.6498 197.796 83.9652 224.955 81.1588C251.699 78.3947 277.572 70.7881 301.857 58.5401L302.703 60.2184C278.214 72.568 252.12 80.2423 225.147 83.0297C217.675 83.8023 210.168 84.1894 202.656 84.1896Z" fill="white"/>
<path d="M196.07 253.314C191.295 253.314 186.524 253.048 181.778 252.517L180.897 252.417L180.944 251.53C181.943 233.2 187.058 214.115 195.738 196.339C204.496 178.402 216.454 162.706 230.317 150.954C242.231 140.85 256.828 132.496 272.526 126.798C289.115 120.777 306.108 118.089 321.666 119.022L322.513 119.073L322.557 119.92C322.673 122.144 322.733 124.413 322.733 126.669C322.744 143.305 319.476 159.78 313.116 175.151C306.755 190.523 297.426 204.49 285.663 216.253C273.899 228.016 259.933 237.345 244.561 243.706C229.189 250.067 212.715 253.335 196.079 253.323L196.07 253.314ZM182.874 250.743C187.258 251.204 191.663 251.435 196.07 251.435C212.46 251.449 228.692 248.231 243.836 241.966C258.981 235.7 272.742 226.51 284.331 214.921C295.92 203.332 305.111 189.571 311.377 174.426C317.642 159.282 320.86 143.05 320.847 126.661C320.847 124.722 320.802 122.773 320.714 120.851C305.64 120.079 289.22 122.739 273.171 128.566C257.677 134.189 243.278 142.426 231.532 152.386C217.866 163.974 206.073 179.458 197.427 197.165C188.991 214.431 183.975 232.935 182.874 250.743Z" fill="white"/>
<path d="M209.264 29.9127C203.594 29.9193 197.941 29.3011 192.407 28.0693C178.939 25.066 164.359 17.8933 153.402 8.8835L152.12 7.82527L153.686 7.26863C170.324 1.38335 188.007 -0.969099 205.605 0.361364C223.204 1.69183 240.332 6.67599 255.896 14.9959L257.378 15.7874L255.937 16.634C246.758 22.0289 236.603 25.9867 226.571 28.082C220.88 29.286 215.081 29.8995 209.264 29.9127ZM155.91 8.48984C166.493 16.8224 180.154 23.4109 192.815 26.2343C203.535 28.6259 214.761 28.6302 226.179 26.247C235.479 24.3062 244.893 20.7251 253.507 15.8636C238.569 8.14179 222.227 3.50915 205.459 2.24224C188.691 0.975339 171.839 3.10015 155.91 8.48984Z" fill="white"/>
<path d="M127.317 232.588H126.612L126.375 232.433C109.28 221.125 95.1592 205.866 85.2076 187.947L85.0892 187.736C75.5928 170.588 70.2605 151.448 69.5225 131.861C69.4506 130.168 69.4146 128.413 69.4146 126.663C69.4066 114.732 71.0825 102.86 74.3925 91.3983L74.6042 90.6935L75.3343 90.7189C88.3189 91.1676 102.125 94.8671 114.21 101.14C127.672 108.125 138.502 117.979 145.533 129.634C155.03 145.385 157.527 164.387 152.755 184.588C148.767 201.463 139.601 218.846 127.607 232.277L127.317 232.588ZM86.977 187.249C96.6421 204.572 110.269 219.363 126.743 230.412C138.272 217.29 147.061 200.479 150.926 184.153C155.582 164.44 153.161 145.923 143.923 130.606C137.074 119.247 126.5 109.636 113.344 102.808C101.731 96.7804 88.5009 93.1782 76.0052 92.6279C72.8782 103.702 71.2963 115.156 71.3046 126.663C71.3046 128.388 71.3406 130.111 71.4104 131.785C72.1427 151.157 77.4363 170.083 86.8606 187.025L86.977 187.249Z" fill="white"/>
<path d="M85.8508 189.107L85.2159 187.945C75.6474 170.744 70.2734 151.528 69.5308 131.859L69.48 130.589L70.7138 130.919C80.003 133.408 91.2182 141.438 95.3347 153.777C99.0788 164.994 95.8681 177.835 86.7397 188.123L85.8508 189.107ZM71.4588 133.093C72.3487 151.562 77.3872 169.593 86.2001 185.848C94.2024 176.252 96.9496 164.571 93.54 154.361C89.8277 143.235 79.9925 135.806 71.461 133.093H71.4588Z" fill="white"/>
<path d="M188.587 139.057C187.381 139.066 186.177 138.967 184.989 138.761C182.354 138.276 180.531 137.233 179.572 135.664C178.459 133.842 178.483 131.194 179.644 128.007C181.126 123.941 184.351 119.304 188.495 115.287C191.755 112.125 197.097 107.879 204.022 105.551C212.422 102.736 226.192 102.146 229.119 108.442C232.046 114.739 222.384 124.472 216.869 128.737C212.251 132.307 206.331 135.298 200.2 137.144C196.026 138.405 191.979 139.057 188.587 139.057ZM204.617 107.331C193.611 111.02 184.172 121.069 181.41 128.65C180.463 131.243 180.381 133.385 181.175 134.684C181.833 135.762 183.27 136.532 185.327 136.911C192.278 138.181 205.872 134.858 215.715 127.247C219.068 124.654 222.393 121.298 224.605 118.265C226.558 115.598 228.626 111.867 227.403 109.23C225.242 104.573 213.375 104.391 204.608 107.325L204.617 107.331Z" fill="white"/>
<path d="M243.452 244.156L243.154 243.157C242.678 241.565 242.285 239.948 241.975 238.315C239.621 225.925 242.398 213.375 250.017 202.015C256.265 192.703 265.637 184.521 275.73 179.56C280.095 177.488 284.626 175.789 289.276 174.48C298.654 171.862 306.538 171.496 312.705 173.397L313.689 173.699L313.298 174.652C306.933 190.142 297.57 204.221 285.745 216.079C273.921 227.938 259.869 237.343 244.398 243.752L243.452 244.156ZM304.125 174.101C291.299 174.101 277.284 180.897 276.571 181.249C266.763 186.068 257.658 194.019 251.596 203.065C244.259 214.001 241.573 226.071 243.829 237.964C244.062 239.189 244.347 240.412 244.675 241.615C274.678 228.885 298.535 204.958 311.177 174.918C308.871 174.352 306.502 174.077 304.127 174.101H304.125Z" fill="white"/>
<path d="M127.315 42.4232C120.841 42.4232 113.359 41.1533 106.491 39.0834L104.997 38.6305L106.096 37.5214C115.043 28.4802 125.301 20.8374 136.524 14.8498L137.208 14.4858L137.697 15.0869C144.018 22.8458 146.226 32.3826 142.831 37.2675C140.312 40.9014 134.418 42.4232 127.315 42.4232ZM108.565 37.7267C115.198 39.5871 122.17 40.6051 127.912 40.548C134.642 40.476 139.396 38.931 141.299 36.1944C144.101 32.1604 142.088 23.7877 136.731 16.8795C126.409 22.4695 116.927 29.4878 108.565 37.7267Z" fill="white"/>
<path d="M39.7329 296.285L37.2334 295.773L51.382 226.531L58.6034 228.006L39.7329 296.285Z" fill="#FDAB71"/>
<path d="M71.0168 295.748L68.5151 295.235L82.6637 225.993L89.8851 227.468L71.0168 295.748Z" fill="#E28F59"/>
<path d="M117.801 293.94L120.335 293.612L111.298 223.519L103.987 224.461L117.801 293.94Z" fill="#FDAB71"/>
<path d="M145.201 293.927L147.733 293.599L137.946 217.675L130.634 218.617L145.201 293.927Z" fill="#E28F59"/>
<path d="M53.8799 221.565L40.9609 166.588H53.8799L58.3858 221.565H53.8799Z" fill="#FDAB71"/>
<path d="M75.2097 218.56L64.9956 162.082H75.2097L79.7156 218.56H75.2097Z" fill="#FDAB71"/>
<path d="M34.821 135.302C34.8961 134.441 35.1776 133.611 35.6419 132.882C36.1061 132.153 36.7393 131.546 37.4878 131.114C46.5314 125.967 69.9692 125.025 73.8762 129.713C78.2108 134.915 84.3506 163.902 82.7654 167.866C80.5981 173.287 60.2186 180.224 45.2616 174.804C32.6008 170.218 34.0655 143.432 34.821 135.302Z" fill="#EEEDFF"/>
<path d="M38.8925 130.401C44.5858 130.037 58.4825 170.901 45.2588 174.804C33.195 178.368 30.8669 150.664 31.5484 136.909C31.6065 135.645 32.0305 134.425 32.7688 133.398C33.5071 132.371 34.528 131.58 35.7072 131.122C36.7264 130.722 37.8004 130.479 38.8925 130.401Z" fill="#B0B0D6"/>
<path d="M102.723 212.572C102.723 212.572 117.374 212.704 129.603 208.128C134.155 206.435 139.211 209.425 139.632 214.266C139.798 216.149 139.249 218.219 137.391 220.325C130.887 227.697 101.227 231.568 101.227 231.568L102.723 212.572Z" fill="#EEEDFF"/>
<path d="M47.8608 215.995C47.8608 215.995 71.8912 217.54 100.095 212.687C110.889 210.831 115.455 226.133 105.34 230.336C105.188 230.399 105.033 230.461 104.876 230.52C92.3025 235.288 55.0145 233.121 47.8608 228.351C40.7072 223.58 43.757 215.832 47.8608 215.995Z" fill="#B0B0D6"/>
<path d="M337.571 0.944622H140.352C132.055 0.944622 125.329 7.67051 125.329 15.9673V138.238C125.329 146.535 132.055 153.261 140.352 153.261H337.571C345.867 153.261 352.593 146.535 352.593 138.238V15.9673C352.593 7.67051 345.867 0.944622 337.571 0.944622Z" fill="#494E6D"/>
<path d="M333.29 8.99144H144.81C139.444 8.99144 135.093 13.3418 135.093 18.7081V135.497C135.093 140.863 139.444 145.214 144.81 145.214H333.29C338.656 145.214 343.007 140.863 343.007 135.497V18.7081C343.007 13.3418 338.656 8.99144 333.29 8.99144Z" fill="white"/>
<path d="M333.29 145.482H144.81C142.163 145.48 139.625 144.427 137.753 142.555C135.881 140.684 134.828 138.146 134.824 135.499V18.7081C134.828 16.0609 135.881 13.523 137.753 11.651C139.625 9.77912 142.162 8.72601 144.81 8.72264H333.29C335.938 8.72432 338.478 9.7767 340.351 11.6488C342.224 13.5209 343.278 16.0598 343.282 18.7081V135.499C343.278 138.147 342.224 140.686 340.351 142.558C338.477 144.429 335.938 145.481 333.29 145.482ZM144.81 9.26023C142.305 9.26303 139.903 10.2593 138.132 12.0306C136.361 13.8018 135.365 16.2033 135.362 18.7081V135.499C135.365 138.004 136.361 140.405 138.132 142.177C139.903 143.948 142.305 144.944 144.81 144.947H333.29C335.794 144.944 338.196 143.947 339.967 142.176C341.738 140.405 342.734 138.004 342.738 135.499V18.7081C342.734 16.2034 341.738 13.8023 339.967 12.0312C338.196 10.2601 335.794 9.26359 333.29 9.26023H144.81Z" fill="#251138"/>
<path d="M239.016 99.1699C237.447 99.1699 236.146 98.6697 235.115 97.6694C234.608 97.1839 234.208 96.5974 233.941 95.9478C233.675 95.2981 233.547 94.5997 233.568 93.8978C233.568 91.2099 234.28 88.2645 235.703 85.0615C237.127 81.8586 239.335 79.0162 242.328 76.5343C244.319 74.882 246.153 73.246 247.831 71.6262C249.497 70.0154 250.871 68.1269 251.89 66.0451C252.923 63.9441 253.439 61.3776 253.439 58.3454C253.445 56.1526 252.882 53.9958 251.807 52.0849C250.731 50.174 249.179 48.5742 247.302 47.4413C245.342 46.2363 242.938 45.6331 240.091 45.6317C236.599 45.6317 233.714 46.2519 231.437 47.4921C229.244 48.6412 227.468 50.4488 226.357 52.6605C225.252 54.8659 224.701 57.4494 224.702 60.411C224.723 61.1086 224.601 61.8031 224.344 62.452C224.087 63.1009 223.7 63.6905 223.208 64.1847C222.209 65.1837 220.891 65.6832 219.254 65.6832C217.687 65.6832 216.386 65.1837 215.353 64.1847C214.846 63.6988 214.446 63.112 214.179 62.462C213.912 61.812 213.785 61.1134 213.804 60.411C213.804 55.5897 214.891 51.3525 217.064 47.6995C219.236 44.0465 222.296 41.1702 226.241 39.0707C230.191 36.9683 234.803 35.9171 240.076 35.9171C244.705 35.9171 248.818 36.8646 252.415 38.7596C255.914 40.5677 258.865 43.2797 260.961 46.6138C263.071 49.9578 264.125 53.8683 264.125 58.3454C264.125 62.203 263.484 65.5449 262.202 68.3711C260.919 71.1941 259.146 73.7668 256.963 75.9692C254.585 78.3566 252.051 80.5831 249.378 82.634C247.538 84.0632 246.193 86.0338 245.532 88.268C244.82 90.5764 244.463 92.4537 244.463 93.8999C244.485 94.5974 244.363 95.2918 244.105 95.9405C243.848 96.5891 243.461 97.1782 242.967 97.6715C241.975 98.6718 240.658 99.1713 239.016 99.1699ZM239.016 118.29C238.054 118.301 237.101 118.12 236.211 117.756C235.321 117.393 234.513 116.855 233.834 116.174C232.374 114.763 231.644 113.092 231.644 111.162C231.631 110.203 231.82 109.253 232.197 108.372C232.574 107.491 233.132 106.699 233.834 106.046C234.513 105.365 235.321 104.827 236.211 104.464C237.101 104.1 238.054 103.919 239.016 103.93C239.994 103.912 240.966 104.09 241.875 104.454C242.784 104.817 243.61 105.359 244.307 106.046C245.008 106.699 245.566 107.491 245.942 108.372C246.319 109.253 246.508 110.204 246.495 111.162C246.495 113.092 245.766 114.763 244.307 116.174C243.611 116.863 242.785 117.406 241.876 117.771C240.967 118.136 239.995 118.315 239.016 118.299V118.29Z" fill="#FF4646"/>
<path d="M289.834 204.382C275.743 199.831 263.378 239.469 267.508 264.61L275.201 266.487C275.201 266.487 307.848 210.198 289.834 204.382Z" fill="#6FC577"/>
<path d="M271.26 266.748C271.236 266.747 271.212 266.744 271.188 266.737C271.122 266.718 271.066 266.673 271.033 266.613C271 266.553 270.992 266.482 271.011 266.415L286.958 210.314C286.977 210.248 287.022 210.191 287.082 210.158C287.143 210.124 287.214 210.116 287.281 210.135C287.347 210.154 287.404 210.199 287.437 210.26C287.471 210.32 287.479 210.392 287.46 210.458L271.512 266.557C271.496 266.612 271.463 266.66 271.418 266.694C271.372 266.728 271.317 266.747 271.26 266.748Z" fill="white"/>
<path d="M247.168 215.47C229.76 223.068 259.433 271.387 270.45 267.093C270.443 267.086 266.502 207.034 247.168 215.47Z" fill="#89D390"/>
<path d="M273.015 271.939C272.968 271.945 272.921 271.936 272.879 271.914C272.837 271.891 272.804 271.857 272.782 271.815L249.575 226.765C249.548 226.71 249.543 226.646 249.562 226.587C249.581 226.528 249.622 226.479 249.677 226.45C249.704 226.436 249.733 226.427 249.764 226.424C249.794 226.422 249.825 226.425 249.854 226.434C249.883 226.444 249.91 226.459 249.934 226.478C249.957 226.498 249.976 226.522 249.99 226.55L273.197 271.601C273.225 271.656 273.229 271.72 273.211 271.779C273.192 271.838 273.15 271.887 273.095 271.916C273.07 271.929 273.043 271.937 273.015 271.939Z" fill="white"/>
<path d="M284.629 254.489V281.69C284.629 286.119 282.87 290.366 279.738 293.498C276.607 296.63 272.359 298.389 267.93 298.389C263.502 298.389 259.254 296.63 256.122 293.498C252.991 290.366 251.231 286.119 251.231 281.69V254.489H284.629Z" fill="#6A5894"/>
<path d="M318.282 259.943L315.567 261.736C315.33 261.892 315.055 261.984 314.772 262.001C314.488 262.018 314.205 261.96 313.951 261.833C313.697 261.706 313.481 261.514 313.324 261.277C313.167 261.041 313.076 260.767 313.059 260.483L312.862 257.236L312.665 253.988C312.648 253.704 312.706 253.421 312.833 253.166C312.961 252.912 313.152 252.696 313.389 252.539C313.627 252.383 313.901 252.291 314.184 252.274C314.468 252.256 314.751 252.314 315.006 252.44L317.916 253.894L320.828 255.348C321.083 255.475 321.299 255.667 321.456 255.904C321.613 256.141 321.704 256.416 321.722 256.7C321.739 256.983 321.681 257.267 321.554 257.521C321.427 257.775 321.235 257.992 320.998 258.148L318.282 259.943Z" fill="#9FA3BF"/>
<path d="M347.754 223.362H328.153C325.613 223.362 323.806 220.837 324.686 218.456C325.69 215.747 327.5 213.409 329.872 211.759C332.243 210.108 335.064 209.224 337.953 209.224C340.843 209.224 343.663 210.108 346.035 211.759C348.407 213.409 350.216 215.747 351.22 218.456C352.101 220.837 350.293 223.362 347.754 223.362Z" fill="#FFF0E3"/>
<path d="M49.5153 74.6993L48.9037 55.1051C48.8254 52.5653 51.2931 50.6837 53.6996 51.4901C56.4394 52.4086 58.8322 54.144 60.5562 56.4631C62.2802 58.7821 63.2527 61.5735 63.3428 64.4618C63.433 67.35 62.6364 70.1966 61.0603 72.6187C59.4843 75.0407 57.2043 76.922 54.5271 78.0095C53.9789 78.2261 53.3867 78.3074 52.8004 78.2464C52.2142 78.1854 51.6513 77.984 51.1594 77.6591C50.6676 77.3343 50.2614 76.8957 49.9752 76.3804C49.689 75.8652 49.5312 75.2885 49.5153 74.6993Z" fill="#FFF0E3"/>
<path d="M10.1133 95.3497L12.3567 98.9477C12.5501 99.262 12.6579 99.6214 12.6694 99.9902C12.681 100.359 12.5958 100.724 12.4226 101.05C12.2493 101.376 11.9939 101.651 11.6816 101.848C11.3693 102.044 11.0111 102.156 10.6424 102.171L6.4095 102.317L2.17656 102.465C1.80739 102.476 1.4419 102.389 1.11641 102.215C0.790926 102.04 0.516771 101.784 0.321186 101.471C0.125602 101.157 0.0153675 100.798 0.00149405 100.429C-0.0123794 100.06 0.0705646 99.6938 0.242077 99.3668L2.23159 95.627L4.22105 91.8872C4.39664 91.5622 4.65421 91.2889 4.96817 91.0943C5.28213 90.8997 5.64155 90.7907 6.01069 90.7781C6.37984 90.7655 6.74587 90.8497 7.07239 91.0223C7.39891 91.195 7.67457 91.4501 7.87196 91.7623L10.1133 95.3497Z" fill="#9FA3BF"/>
<path d="M63.3938 19.777C66.0717 19.777 68.2426 17.6061 68.2426 14.9281C68.2426 12.2502 66.0717 10.0793 63.3938 10.0793C60.7158 10.0793 58.5449 12.2502 58.5449 14.9281C58.5449 17.6061 60.7158 19.777 63.3938 19.777Z" fill="#9FA3BF"/>
<path d="M79.5532 276.146L76.0649 274.12C75.5043 273.795 75.096 273.26 74.9299 272.633C74.7637 272.006 74.8533 271.339 75.1789 270.779L79.8127 262.801L87.5285 267.283L82.8948 275.26C82.5692 275.821 82.0342 276.229 81.4075 276.395C80.7808 276.562 80.1138 276.472 79.5532 276.146Z" fill="#FB855F"/>
<path d="M148.588 289.929L144.556 290.059C143.908 290.08 143.278 289.842 142.805 289.399C142.332 288.956 142.055 288.343 142.034 287.695L141.736 278.474L150.655 278.186L150.952 287.406C150.973 288.054 150.736 288.684 150.293 289.157C149.849 289.63 149.236 289.908 148.588 289.929Z" fill="#FB855F"/>
<path d="M148.581 215.504C151.729 215.404 154.72 214.102 156.939 211.866C159.158 209.63 160.436 206.629 160.511 203.48C161.146 175.797 160.903 147.468 159.584 126.726L132.614 127.598C134.231 151.22 135.33 178.734 135.855 203.44C135.889 205.07 136.247 206.678 136.907 208.169C137.566 209.661 138.516 211.006 139.699 212.128C140.883 213.25 142.277 214.127 143.802 214.706C145.327 215.285 146.951 215.556 148.581 215.504Z" fill="#313971"/>
<path d="M147.824 191.74C149.498 191.685 151.166 191.972 152.725 192.586C154.284 193.199 155.7 194.125 156.888 195.306C158.076 196.488 159.009 197.9 159.63 199.455C160.252 201.011 160.548 202.678 160.501 204.352C159.847 228.215 158.941 263.088 158.385 278.393L137.516 279.068C137.783 261.643 136.38 225.982 135.946 204.261C135.88 201.031 137.089 197.905 139.313 195.561C141.536 193.217 144.594 191.844 147.824 191.74Z" fill="#313971"/>
<path d="M104.662 208.348C107.758 208.931 110.959 208.308 113.609 206.604C116.258 204.901 118.155 202.248 118.91 199.19C125.52 172.3 131.412 144.585 134.612 124.055L108.093 119.071C104.561 142.483 99.6799 169.583 94.8459 193.818C94.527 195.418 94.5286 197.064 94.8505 198.663C95.1724 200.262 95.8082 201.781 96.7212 203.132C97.6341 204.483 98.806 205.64 100.169 206.536C101.532 207.431 103.059 208.047 104.662 208.348Z" fill="#313971"/>
<path d="M110.309 187.507C111.906 188.01 113.382 188.834 114.648 189.928C115.914 191.022 116.943 192.364 117.672 193.87C118.4 195.377 118.813 197.016 118.885 198.688C118.957 200.36 118.686 202.029 118.09 203.592C109.571 225.891 97.1704 258.5 91.5702 272.754L71.6543 266.479C77.6757 250.125 88.1628 216.012 94.9355 195.366C95.9471 192.295 98.1289 189.748 101.007 188.277C103.886 186.805 107.228 186.529 110.309 187.507Z" fill="#313971"/>
<path d="M146.844 154.659L123.512 154.353L130.172 130.815L141.239 128.868L146.844 154.659Z" fill="#313971"/>
<path d="M132.202 143.739L132.141 143.205L138.2 142.503L135.902 127.749L136.433 127.666L138.816 142.972L132.202 143.739Z" fill="#251138"/>
<path d="M160.313 150.539L157.176 147.935L155.441 126.849L155.976 126.805L157.693 147.667L160.656 150.124L160.313 150.539Z" fill="#251138"/>
<path d="M102.849 152.096L102.669 151.591L106.896 150.086L111.457 128.354L111.984 128.464L107.359 150.49L102.849 152.096Z" fill="#251138"/>
<path d="M158.376 278.397L158.837 271.675L138.161 271.548L137.507 279.072L158.376 278.397Z" fill="#251138"/>
<path d="M94.4752 265.198L91.5756 272.758L71.6597 266.483L74.6354 258.913L94.4752 265.198Z" fill="#251138"/>
<path d="M150.562 285.256L171.917 288.808C172.588 288.92 173.199 289.261 173.647 289.773C174.095 290.285 174.352 290.936 174.374 291.616C174.387 292.002 174.323 292.387 174.187 292.749C174.05 293.11 173.844 293.442 173.58 293.723C173.315 294.005 172.998 294.232 172.646 294.391C172.294 294.551 171.914 294.639 171.528 294.651L141.364 295.625L141.647 285.652L150.562 285.256Z" fill="#1C203F"/>
<path d="M83.6599 273.262L99.889 287.589C100.398 288.039 100.736 288.652 100.845 289.323C100.953 289.995 100.827 290.683 100.486 291.271C100.092 291.944 99.4478 292.433 98.694 292.632C97.9401 292.83 97.1384 292.721 96.4646 292.329L70.3643 277.171L75.8904 268.864L83.6599 273.262Z" fill="#1C203F"/>
<path d="M223.502 111.196C223.61 108.827 219.439 107.443 215.824 106.622C217.371 105.325 218.562 103.682 218.152 102.842C217.578 101.634 213.936 102.546 211.603 103.657C211.189 103.854 210.79 104.083 210.412 104.343C209.312 104.325 208.232 104.635 207.31 105.233C206.388 105.832 205.664 106.692 205.233 107.703C204.801 108.714 204.681 109.832 204.887 110.912C205.093 111.992 205.617 112.986 206.39 113.767C206.635 114.013 206.902 114.236 207.188 114.432C208.379 115.533 209.862 116.268 211.459 116.548C215.269 117.272 223.257 116.576 223.502 111.196Z" fill="#FB855F"/>
<path d="M210.645 104.173L208.759 115.928H203.411L159.864 115.966C159.334 115.959 158.806 115.91 158.283 115.822C155.638 115.378 153.256 113.958 151.608 111.843C149.959 109.727 149.164 107.071 149.379 104.397C149.594 101.724 150.804 99.2287 152.77 97.4043C154.735 95.5798 157.314 94.5589 159.996 94.5433C160.57 94.5434 161.144 94.5887 161.712 94.6788L165.238 95.3645L166.14 95.5423L168.256 95.9465L205.521 103.181L210.645 104.173Z" fill="#FFAA40"/>
<path d="M159.811 115.647L159.748 115.659C159.265 115.754 158.775 115.811 158.283 115.829C156.13 115.924 154.003 115.322 152.219 114.112C150.436 112.901 149.091 111.147 148.384 109.111L136.109 73.8168C135.534 72.1615 135.307 70.4057 135.441 68.6588C135.575 66.912 136.068 65.2114 136.888 63.6631C137.708 62.1149 138.838 60.7521 140.208 59.6598C141.578 58.5675 143.158 57.769 144.85 57.3141C146.542 56.8593 148.309 56.7578 150.042 57.016C151.775 57.2742 153.436 57.8865 154.922 58.8148C156.408 59.7432 157.687 60.9676 158.678 62.4118C159.67 63.856 160.354 65.4891 160.687 67.2091L165.826 93.8766L166.146 95.5423L166.569 97.7096L167.765 103.907C168.014 105.2 168.005 106.529 167.74 107.819C167.475 109.109 166.958 110.334 166.22 111.424C165.481 112.514 164.535 113.448 163.435 114.173C162.336 114.897 161.104 115.398 159.811 115.647Z" fill="#FFAA40"/>
<path d="M159.697 126.563C150.96 141.673 129.575 127.145 107.047 126.563V58.2967C117.926 50.07 138.813 49.9832 154.033 58.2967L159.697 126.563Z" fill="#FFAA40"/>
<path d="M123.326 28.9873C123.39 28.5006 122.269 27.9513 120.821 27.7605C119.374 27.5697 118.149 27.8096 118.084 28.2963C118.02 28.783 119.142 29.3323 120.589 29.5231C122.036 29.7139 123.262 29.474 123.326 28.9873Z" fill="#8E3332"/>
<path d="M121.506 31.1702C121.826 31.0655 121.718 29.8558 121.264 28.4682C120.81 27.0806 120.183 26.0405 119.863 26.1452C119.543 26.2498 119.652 27.4595 120.105 28.8471C120.559 30.2348 121.186 31.2748 121.506 31.1702Z" fill="#8E3332"/>
<path d="M138.246 54.5484C138.049 57.8438 136.94 61.6344 132.854 61.4354C125.689 61.0904 123.964 53.5579 123.964 53.5579C123.964 53.5579 124.549 42.7809 124.718 42.6729H138.028V49.8477C138.26 51.4032 138.333 52.9782 138.246 54.5484Z" fill="#FB855F"/>
<path d="M138.247 54.5484C127.946 52.4108 126.481 46.9778 126.481 46.9778L136.833 42.6729H138.02V49.8477C138.255 51.403 138.33 52.9779 138.247 54.5484Z" fill="#E56542"/>
<path d="M122.756 38.7659C122.756 38.7659 125.846 53.8627 137.36 50.7726C138.669 50.4254 139.864 49.7366 140.82 48.7768C141.676 47.9175 142.296 46.8527 142.621 45.6847C143.779 41.4983 143.574 34.6642 142.327 25.7369L122.754 27.4005L122.756 38.7659Z" fill="#FB855F"/>
<path d="M127.376 33.3308C136.525 34.9351 144.058 32.6536 146.03 27.138C146.21 26.6297 146.263 26.0854 146.186 25.5519C146.108 25.0184 145.902 24.5117 145.585 24.0754C145.269 23.6392 144.851 23.2864 144.367 23.0475C143.884 22.8086 143.35 22.6908 142.811 22.704C138.606 22.8183 131.48 24.3464 124.535 25.5782C124.018 25.6686 123.515 25.8288 123.041 26.0544C118.984 28.0037 117.843 31.7096 118.764 36.66C120.322 44.0169 122.72 45.3376 125.304 45.3143C125.141 40.9268 128.493 37.4706 127.376 33.3308Z" fill="#2D3242"/>
<path d="M124.115 44.6963C125.805 44.6963 127.175 42.9319 127.175 40.7554C127.175 38.5789 125.805 36.8145 124.115 36.8145C122.424 36.8145 121.054 38.5789 121.054 40.7554C121.054 42.9319 122.424 44.6963 124.115 44.6963Z" fill="#FB855F"/>
<path d="M122.025 40.148C121.985 40.1691 124.178 37.8199 125.835 40.457C125.829 40.457 123.431 39.4263 122.025 40.148Z" fill="#E56542"/>
<path d="M120.876 79.381L99.5631 95.3201L98.5832 96.0503L97.5842 96.8016L90.9427 101.765C89.889 102.553 88.6902 103.127 87.4149 103.452C86.1395 103.777 84.8126 103.847 83.51 103.659C82.2073 103.471 80.9546 103.028 79.8233 102.355C78.692 101.683 77.7044 100.794 76.9169 99.7393L76.8788 99.6885C75.437 97.7587 74.7378 95.3745 74.9092 92.9716C75.0806 90.5688 76.111 88.308 77.8121 86.6023L104.204 60.1571C105.442 58.9168 106.923 57.9448 108.553 57.3019C110.183 56.6589 111.928 56.3587 113.68 56.4201C115.431 56.4814 117.151 56.903 118.732 57.6584C120.313 58.4138 121.722 59.487 122.87 60.8109C124.018 62.1348 124.881 63.6811 125.405 65.3532C125.929 67.0254 126.103 68.7877 125.916 70.5301C125.729 72.2724 125.185 73.9576 124.318 75.4804C123.451 77.0032 122.279 78.331 120.876 79.381Z" fill="#FFAA40"/>
<path d="M119.643 147.948C121.585 146.589 120.136 142.445 118.584 139.076C120.555 139.499 122.584 139.448 123.006 138.619C123.609 137.425 120.665 135.099 118.36 133.929C117.951 133.72 117.527 133.545 117.09 133.404C116.434 132.521 115.53 131.853 114.492 131.487C113.455 131.12 112.332 131.071 111.267 131.346C110.201 131.621 109.242 132.207 108.512 133.03C107.781 133.853 107.313 134.874 107.166 135.965C107.121 136.308 107.108 136.656 107.126 137.002C106.977 138.618 107.298 140.243 108.051 141.681C109.805 145.137 115.232 151.038 119.643 147.948Z" fill="#FB855F"/>
<path d="M117.357 133.478L106.895 139.161L103.46 134.705L77.017 100.459C75.6027 98.5837 74.8535 96.2907 74.8878 93.9423C74.9057 91.567 75.7129 89.2651 77.1824 87.3988C78.6519 85.5326 80.7003 84.2079 83.0051 83.6334C85.3099 83.0589 87.7404 83.2671 89.9139 84.2253C92.0874 85.1835 93.8806 86.8372 95.0112 88.9262L98.2367 95.3582L98.5839 96.0503L99.1913 97.2651L114.51 127.797L117.357 133.478Z" fill="#FFAA40"/>
<path d="M132.546 61.4841C124.728 61.4841 122.972 52.5632 122.955 52.4722L123.484 52.3727C123.499 52.4616 125.192 61.0798 132.728 60.9444C134.257 60.9148 137.857 60.0787 138.286 52.9336L138.822 52.9653C138.731 54.4828 138.413 56.6734 137.421 58.4851C136.35 60.4343 134.775 61.4481 132.739 61.482L132.546 61.4841Z" fill="#251138"/>
<path d="M133.818 58.0378L133.281 58.0593L136.081 128.059L136.618 128.038L133.818 58.0378Z" fill="#251138"/>
<path d="M135.398 70.3542C135.813 70.3542 136.149 70.0178 136.149 69.6029C136.149 69.1879 135.813 68.8515 135.398 68.8515C134.983 68.8515 134.646 69.1879 134.646 69.6029C134.646 70.0178 134.983 70.3542 135.398 70.3542Z" fill="black"/>
<path d="M135.972 81.2096C136.387 81.2096 136.723 80.8732 136.723 80.4582C136.723 80.0433 136.387 79.7069 135.972 79.7069C135.557 79.7069 135.22 80.0433 135.22 80.4582C135.22 80.8732 135.557 81.2096 135.972 81.2096Z" fill="black"/>
<path d="M136.543 92.0649C136.958 92.0649 137.294 91.7285 137.294 91.3136C137.294 90.8986 136.958 90.5622 136.543 90.5622C136.128 90.5622 135.792 90.8986 135.792 91.3136C135.792 91.7285 136.128 92.0649 136.543 92.0649Z" fill="black"/>
<path d="M137.114 102.92C137.529 102.92 137.865 102.584 137.865 102.169C137.865 101.754 137.529 101.418 137.114 101.418C136.699 101.418 136.363 101.754 136.363 102.169C136.363 102.584 136.699 102.92 137.114 102.92Z" fill="black"/>
<path d="M137.688 113.776C138.103 113.776 138.439 113.439 138.439 113.024C138.439 112.609 138.103 112.273 137.688 112.273C137.273 112.273 136.937 112.609 136.937 113.024C136.937 113.439 137.273 113.776 137.688 113.776Z" fill="black"/>
<path d="M138.259 124.631C138.674 124.631 139.01 124.295 139.01 123.88C139.01 123.465 138.674 123.128 138.259 123.128C137.844 123.128 137.507 123.465 137.507 123.88C137.507 124.295 137.844 124.631 138.259 124.631Z" fill="#001065"/>
<path d="M210.646 104.173L208.76 115.928L203.412 115.934L205.52 103.181L210.646 104.173Z" fill="#FFAA40"/>
<path d="M117.357 133.478L106.897 139.161L103.462 134.705C106.213 132.942 114.044 127.933 114.51 127.797L117.357 133.478Z" fill="#FFAA40"/>
<path d="M110.728 85.3694L105.893 90.2048L106.273 90.5849L111.108 85.7495L110.728 85.3694Z" fill="#251138"/>
<path d="M98.8293 94.9624H93.9932V95.5H98.8293V94.9624Z" fill="#251138"/>
<path d="M227.539 97.7177L224.516 95.4767L221.818 99.1152L224.841 101.356L227.539 97.7177Z" fill="#6B2ECA"/>
<path d="M249.257 82.5853C248.528 79.7207 246.965 77.1368 244.766 75.1605C242.568 73.1841 239.833 71.904 236.907 71.4821C233.981 71.0601 230.996 71.5152 228.329 72.7899C225.662 74.0645 223.432 76.1015 221.923 78.6431C220.413 81.1848 219.691 84.117 219.848 87.0689C220.005 90.0209 221.034 92.86 222.804 95.2273C224.575 97.5946 227.008 99.3837 229.795 100.368C232.582 101.353 235.599 101.489 238.463 100.759C242.305 99.7803 245.6 97.3156 247.624 93.9075C249.648 90.4993 250.236 86.4267 249.257 82.5853ZM237.532 97.1127C235.389 97.6588 233.132 97.557 231.046 96.8202C228.961 96.0834 227.14 94.7447 225.816 92.9734C224.491 91.2021 223.721 89.0778 223.604 86.869C223.486 84.6603 224.027 82.4663 225.156 80.5646C226.286 78.6629 227.954 77.1388 229.949 76.1851C231.945 75.2313 234.179 74.8908 236.368 75.2066C238.557 75.5223 240.603 76.4801 242.248 77.9589C243.893 79.4377 245.063 81.371 245.609 83.5144C245.971 84.9376 246.05 86.4183 245.84 87.8719C245.631 89.3255 245.137 90.7236 244.387 91.9863C243.637 93.249 242.645 94.3517 241.469 95.2313C240.293 96.1108 238.955 96.7502 237.532 97.1127Z" fill="#FFAA40"/>
<path d="M225.853 99.3238L223.519 97.5933C222.975 97.1902 222.208 97.3043 221.805 97.848L210.282 113.392C209.879 113.935 209.993 114.703 210.537 115.106L212.871 116.836C213.415 117.239 214.182 117.125 214.586 116.582L226.108 101.038C226.511 100.494 226.397 99.7269 225.853 99.3238Z" fill="#494E6D"/>
<g opacity="0.33">
<g opacity="0.33">
<path opacity="0.33" d="M251.33 93.4914L251.286 89.337L220.33 89.6612L220.374 93.8156L251.33 93.4914Z" fill="white"/>
<path opacity="0.33" d="M250.363 86.1896L250.358 85.6902L219.402 86.0143L219.407 86.5138L250.363 86.1896Z" fill="white"/>
</g>
</g>
<path d="M166.331 95.0409L161.496 99.8763L161.876 100.256L166.711 95.4211L166.331 95.0409Z" fill="#251138"/>
<path d="M108.723 114.392L108.243 114.633L110.66 119.467L111.141 119.227L108.723 114.392Z" fill="#251138"/>
<path d="M159.538 109.2H159V116.453H159.538V109.2Z" fill="#251138"/>
<path d="M344.752 295.891H28.0483C27.3809 295.891 26.8398 296.432 26.8398 297.1C26.8398 297.767 27.3809 298.308 28.0483 298.308H344.752C345.42 298.308 345.961 297.767 345.961 297.1C345.961 296.432 345.42 295.891 344.752 295.891Z" fill="#5F6386"/>
</svg>
