<svg width="26" height="26" viewBox="0 0 26 26" fill="none" xmlns="http://www.w3.org/2000/svg">
<mask id="mask0_699_447" style="mask-type:alpha" maskUnits="userSpaceOnUse" x="0" y="0" width="26" height="26">
<rect width="26" height="26" fill="#C4C4C4"/>
</mask>
<g mask="url(#mask0_699_447)">
<g clip-path="url(#clip0_699_447)">
<path d="M22.6753 14.5234L20.9336 8.25711C20.4231 6.42133 19.3136 4.80887 17.7815 3.67604C16.2494 2.54321 14.3826 1.95501 12.4778 2.00495C10.573 2.05489 8.73957 2.7401 7.26892 3.95166C5.79827 5.16322 4.7748 6.8316 4.36119 8.69161L3.01278 14.7554C2.86383 15.4254 2.86728 16.1203 3.02285 16.7888C3.17843 17.4573 3.48217 18.0824 3.91164 18.6178C4.34112 19.1532 4.88536 19.5853 5.5042 19.8822C6.12303 20.1792 6.80065 20.3333 7.48703 20.3333H8.50819C8.71858 21.3694 9.2807 22.3009 10.0993 22.97C10.9179 23.639 11.9426 24.0045 12.9999 24.0045C14.0571 24.0045 15.0818 23.639 15.9004 22.97C16.719 22.3009 17.2811 21.3694 17.4915 20.3333H18.2597C18.9663 20.3333 19.6633 20.17 20.2963 19.8561C20.9293 19.5422 21.4812 19.0861 21.9088 18.5236C22.3364 17.9611 22.6281 17.3074 22.7613 16.6135C22.8944 15.9196 22.8653 15.2042 22.6762 14.5234H22.6753ZM12.9999 22.1666C12.4331 22.1643 11.881 21.9869 11.4189 21.6587C10.9568 21.3305 10.6074 20.8676 10.4185 20.3333H15.5812C15.3923 20.8676 15.0429 21.3305 14.5808 21.6587C14.1188 21.9869 13.5666 22.1643 12.9999 22.1666V22.1666ZM20.4487 17.4137C20.1933 17.7526 19.8623 18.0272 19.4822 18.2157C19.102 18.4043 18.6831 18.5016 18.2588 18.4999H7.48703C7.07525 18.4999 6.66874 18.4073 6.29751 18.2291C5.92628 18.0509 5.5998 17.7917 5.34218 17.4704C5.08455 17.1492 4.90236 16.7742 4.80904 16.3731C4.71573 15.9721 4.71367 15.5552 4.80303 15.1532L6.15053 9.08852C6.47535 7.62755 7.27923 6.31708 8.43436 5.36544C9.5895 4.41379 11.0296 3.8756 12.5257 3.8364C14.0219 3.79721 15.4882 4.25926 16.6916 5.14912C17.8949 6.03898 18.7663 7.30556 19.1672 8.74752L20.9089 15.0139C21.0239 15.4221 21.0423 15.8516 20.9624 16.2682C20.8825 16.6847 20.7066 17.077 20.4487 17.4137V17.4137Z" fill="white"/>
</g>
</g>
<defs>
<clipPath id="clip0_699_447">
<rect width="22" height="22" fill="white" transform="translate(2 2)"/>
</clipPath>
</defs>
</svg>
