<svg width="40" height="40" viewBox="0 0 40 40" fill="none" xmlns="http://www.w3.org/2000/svg">
<mask id="mask0_699_441" style="mask-type:alpha" maskUnits="userSpaceOnUse" x="0" y="0" width="40" height="40">
<rect width="40" height="40" fill="#C4C4C4"/>
</mask>
<g mask="url(#mask0_699_441)">
<path d="M34.8985 38.3797H11.4866C11.0393 38.3791 10.5928 38.3414 10.1517 38.267L10.039 38.249C5.9245 37.5858 2.72232 34.3088 2.09989 30.127C1.49735 26.0836 3.66687 21.9909 7.36263 20.1794C8.31467 19.7176 9.33366 19.4091 10.382 19.2652C10.4198 19.26 10.4545 19.2413 10.4797 19.2126C10.505 19.1839 10.519 19.1471 10.5193 19.1089V18.8067C10.5193 14.3085 10.5193 9.81091 10.5193 5.31397C10.5193 4.13826 10.9722 3.18518 11.9575 2.54759C12.345 2.29748 13.0081 2 13.3151 2H29.4264C30.1009 2 30.7233 2.31074 31.2141 2.75791L31.2236 2.76644C31.4225 2.97297 37.2537 8.81741 37.5303 9.08268C37.9785 9.54122 38.1831 10.1362 38.1831 10.4251C38.173 15.277 38.1711 20.1289 38.1774 24.9808C38.1774 28.3535 38.185 31.7262 38.1727 35.0989C38.1727 36.5143 37.5019 37.5309 36.2154 38.1211C36.1517 38.1503 36.0865 38.1763 36.0202 38.1988C35.659 38.321 35.2799 38.3822 34.8985 38.3797V38.3797ZM28.9574 4.29173C28.9574 4.24943 28.9407 4.20885 28.9109 4.17885C28.881 4.14885 28.8406 4.13188 28.7983 4.13163H13.8845C13.0574 4.13163 12.6472 4.54469 12.6462 5.37744V18.7356L13.1455 19.3211C14.6572 19.5674 16.0853 20.1809 17.3045 21.1079C17.498 21.2588 17.7386 21.3367 17.9838 21.3277C22.6045 21.3214 27.225 21.3214 31.8451 21.3277C31.9635 21.3277 32.0819 21.3277 32.1994 21.3277C32.4615 21.3431 32.709 21.454 32.895 21.6393C33.0811 21.8247 33.1929 22.0717 33.2093 22.3338C33.2211 22.5965 33.1361 22.8544 32.9703 23.0585C32.8046 23.2627 32.5697 23.3989 32.3102 23.4413C32.1694 23.4575 32.0274 23.4622 31.8858 23.4555H19.8284C19.8002 23.4554 19.7726 23.4629 19.7483 23.477C19.724 23.4912 19.7039 23.5116 19.6901 23.5361C19.6763 23.5606 19.6693 23.5884 19.6698 23.6165C19.6703 23.6446 19.6782 23.6721 19.6929 23.6962C20.4245 24.8778 20.8967 26.2015 21.078 27.5795C21.0828 27.6178 21.1015 27.6529 21.1305 27.6784C21.1594 27.7039 21.1967 27.7179 21.2353 27.7178H21.8984C25.2661 27.7178 28.6337 27.7178 32.0014 27.7178C32.513 27.7178 32.9061 27.8988 33.1155 28.3753C33.4376 29.1076 32.891 29.8504 32.0336 29.8513C28.5238 29.8513 25.0141 29.8513 21.5043 29.8513H21.2305C21.1922 29.8513 21.1552 29.8652 21.1264 29.8905C21.0976 29.9158 21.079 29.9507 21.0742 29.9887C20.9174 31.1806 20.5426 32.3335 19.9686 33.3898C19.4303 34.3586 18.7342 35.2308 17.909 35.9705C17.8856 35.9922 17.8694 36.0204 17.8622 36.0515C17.8551 36.0825 17.8575 36.115 17.869 36.1447C17.8805 36.1744 17.9007 36.1999 17.9269 36.218C17.9531 36.2361 17.9842 36.2459 18.016 36.2462H34.7602C35.6574 36.2462 36.0486 35.8502 36.0486 34.9445V11.3962C36.0486 11.354 36.0319 11.3135 36.002 11.2837C35.9722 11.2538 35.9317 11.237 35.8895 11.237H35.627C33.7954 11.237 31.9638 11.237 30.1322 11.237C29.3951 11.237 28.9603 10.8031 28.9584 10.0718C28.9584 8.88752 28.9584 7.70328 28.9584 6.51905L28.9574 4.29173ZM4.13583 28.7637C4.12635 32.8745 7.45169 36.233 11.5491 36.2481C13.5234 36.2512 15.4185 35.4723 16.82 34.0818C18.2215 32.6913 19.0153 30.8024 19.0278 28.8282C19.0458 24.7023 15.7072 21.3334 11.5956 21.3267C9.6216 21.3282 7.72859 22.1116 6.33074 23.5053C4.9329 24.8991 4.14404 26.7898 4.13677 28.7637H4.13583ZM34.1036 8.8212L31.3789 6.09272C31.3568 6.07024 31.3285 6.05489 31.2975 6.04864C31.2666 6.04239 31.2345 6.04552 31.2054 6.05764C31.1763 6.06976 31.1515 6.09031 31.1341 6.11665C31.1167 6.14299 31.1076 6.17392 31.108 6.20546V8.93394C31.108 8.97615 31.1248 9.01663 31.1546 9.04648C31.1845 9.07633 31.2249 9.0931 31.2672 9.0931H33.9909C34.0224 9.09318 34.0533 9.08389 34.0795 9.0664C34.1058 9.04892 34.1262 9.02403 34.1383 8.9949C34.1504 8.96577 34.1535 8.93371 34.1474 8.90278C34.1412 8.87186 34.126 8.84346 34.1036 8.8212V8.8212Z" fill="#5DC5CC"/>
<path d="M24.3078 17.0635C21.7448 17.0635 19.1821 17.0635 16.6198 17.0635C15.7756 17.0635 15.2432 16.2829 15.5852 15.5591C15.787 15.1327 16.1413 14.9338 16.6103 14.9338H20.9683C24.665 14.9338 28.3614 14.9338 32.0575 14.9338C32.9101 14.9338 33.4482 15.6917 33.1176 16.4231C32.9092 16.8816 32.5274 17.0673 32.0309 17.0664C29.4566 17.0645 26.8822 17.0635 24.3078 17.0635Z" fill="#5DC5CC"/>
<path d="M10.1061 30.3743C10.4017 30.0579 10.6443 29.785 10.9019 29.5217C12.0098 28.4069 13.1204 27.2944 14.2339 26.184C14.7228 25.6961 15.3708 25.6734 15.8094 26.1139C16.2481 26.5544 16.2244 27.2015 15.7355 27.6942C14.1357 29.3041 12.5324 30.9105 10.9256 32.5135C10.3875 33.0488 9.78877 33.0384 9.24686 32.4984C8.59316 31.8485 7.94199 31.1957 7.29334 30.5401C6.80449 30.0456 6.77417 29.4032 7.20808 28.9618C7.64198 28.5203 8.29379 28.5364 8.78453 29.0214C9.21181 29.4478 9.62676 29.8836 10.1061 30.3743Z" fill="#5DC5CC"/>
</g>
</svg>
