<svg width="32" height="32" viewBox="0 0 32 32" fill="none" xmlns="http://www.w3.org/2000/svg">
<g clip-path="url(#clip0_733_563)">
<path d="M24.995 27.1121C25.1117 27.2428 25.2016 27.3953 25.2593 27.5608C25.3171 27.7263 25.3416 27.9015 25.3316 28.0765C25.3216 28.2515 25.2771 28.4228 25.2009 28.5806C25.1246 28.7383 25.0179 28.8796 24.887 28.9961L22.7723 30.8814C22.41 31.2401 21.9803 31.5236 21.508 31.7156C21.0357 31.9076 20.5301 32.0043 20.0203 32.0001C19.4916 32.0011 18.9678 31.8978 18.4791 31.696C17.9904 31.4942 17.5463 31.1979 17.1723 30.8241L15.1137 28.9921C14.9829 28.8757 14.8763 28.7346 14.8 28.577C14.7237 28.4193 14.6792 28.2482 14.6691 28.0734C14.6486 27.7203 14.7692 27.3736 15.0043 27.1094C15.2395 26.8453 15.5699 26.6853 15.923 26.6648C16.0978 26.6547 16.2729 26.6791 16.4383 26.7366C16.6037 26.7941 16.7562 26.8837 16.887 27.0001L18.667 28.5921V18.6668C18.667 18.3131 18.8075 17.974 19.0575 17.7239C19.3076 17.4739 19.6467 17.3334 20.0003 17.3334C20.3539 17.3334 20.6931 17.4739 20.9431 17.7239C21.1932 17.974 21.3337 18.3131 21.3337 18.6668V28.5934L23.1137 27.0041C23.3776 26.7691 23.7239 26.6485 24.0767 26.6688C24.4294 26.689 24.7597 26.8485 24.995 27.1121V27.1121ZM24.475 9.81475C24.2461 9.74366 24.0383 9.61694 23.8703 9.44593C23.7023 9.27491 23.5793 9.06493 23.5123 8.83475C22.8063 6.56821 21.3644 4.60194 19.4149 3.2473C17.4654 1.89267 15.1197 1.22708 12.7493 1.35594C10.3788 1.4848 8.11908 2.40074 6.3279 3.95873C4.53672 5.51671 3.31645 7.6277 2.86032 9.95742C2.39231 12.3134 2.77001 14.759 3.92699 16.8641C2.57826 17.5604 1.48153 18.6618 0.79088 20.0134C0.100227 21.3651 -0.149659 22.8991 0.0763249 24.4001C0.42386 26.1438 1.35741 27.7162 2.72195 28.8562C4.08648 29.9961 5.7999 30.635 7.57766 30.6668H10.667C11.0206 30.6668 11.3598 30.5263 11.6098 30.2762C11.8598 30.0262 12.0003 29.687 12.0003 29.3334C12.0003 28.9798 11.8598 28.6407 11.6098 28.3906C11.3598 28.1406 11.0206 28.0001 10.667 28.0001H7.57766C6.43894 27.9782 5.34059 27.5744 4.45898 26.8533C3.57736 26.1322 2.96363 25.1358 2.71632 24.0241C2.57154 23.0688 2.72952 22.0922 3.16809 21.2314C3.60666 20.3705 4.3038 19.6685 5.16166 19.2241C5.77311 18.8862 6.22689 18.321 6.42478 17.651C6.62266 16.981 6.54873 16.26 6.21899 15.6441C5.70127 14.6567 5.39565 13.572 5.32173 12.4595C5.24782 11.3471 5.40724 10.2315 5.78977 9.18427C6.1723 8.13705 6.7695 7.18135 7.54305 6.37848C8.3166 5.5756 9.24943 4.94327 10.2817 4.52206C11.314 4.10085 12.4229 3.90005 13.5373 3.93254C14.6517 3.96504 15.747 4.23011 16.753 4.71075C17.759 5.19139 18.6534 5.87699 19.3788 6.72357C20.1043 7.57016 20.6448 8.55903 20.9657 9.62675C21.163 10.2704 21.5145 10.856 21.9897 11.3329C22.4649 11.8097 23.0494 12.1632 23.6923 12.3628C25.434 12.8927 26.9415 14.0037 27.9634 15.5104C28.9854 17.0171 29.4601 18.8285 29.3083 20.6428C29.2079 22.0535 28.6925 23.4029 27.827 24.5214C27.6115 24.8018 27.5162 25.1564 27.562 25.5071C27.6079 25.8578 27.7912 26.1759 28.0717 26.3914C28.3521 26.607 28.7066 26.7023 29.0573 26.6564C29.408 26.6105 29.7261 26.4272 29.9417 26.1468C31.1164 24.6152 31.8205 22.7752 31.9683 20.8508C32.1697 18.4317 31.5357 16.0167 30.1721 14.0084C28.8086 12.0001 26.7977 10.52 24.475 9.81475V9.81475Z" fill="#5167B2"/>
</g>
<defs>
<clipPath id="clip0_733_563">
<rect width="32" height="32" fill="white"/>
</clipPath>
</defs>
</svg>
