<svg width="40" height="40" viewBox="0 0 40 40" fill="none" xmlns="http://www.w3.org/2000/svg">
<mask id="mask0_699_443" style="mask-type:alpha" maskUnits="userSpaceOnUse" x="0" y="0" width="40" height="40">
<rect width="40" height="40" fill="#C4C4C4"/>
</mask>
<g mask="url(#mask0_699_443)">
<path d="M28.0043 2C28.2708 2.05944 28.5392 2.11024 28.8038 2.17831C31.35 2.83977 33.0909 5.05422 33.1177 7.73074C33.1445 10.4073 33.1273 13.0991 33.1177 15.7833C33.1177 16.6758 32.5214 17.3066 31.7047 17.3171C30.8879 17.3277 30.2552 16.6835 30.2533 15.7833C30.2456 13.2439 30.2533 10.7025 30.2533 8.16405C30.2533 7.99628 30.2533 7.82756 30.2466 7.66076C30.1775 6.08764 28.9601 4.89509 27.385 4.88646C25.0297 4.87496 22.6743 4.88646 20.3179 4.88646C16.863 4.88646 13.4074 4.88646 9.95123 4.88646C7.99369 4.88646 6.76855 6.19404 6.88359 8.22061C6.88359 16.9921 6.89221 23.9758 6.89221 32.4943C6.72254 34.586 8.8325 35.9454 9.95219 35.9454C14.5191 35.9454 19.0867 35.9454 23.655 35.9454C24.4142 35.9454 25.0153 36.4247 25.1351 37.1006C25.2645 37.8339 24.907 38.4484 24.1765 38.7485C24.1363 38.7693 24.0978 38.7934 24.0614 38.8204H10.1171C9.39938 38.8238 8.68491 38.7241 7.99561 38.5241C7.78868 38.466 7.58699 38.3906 7.39263 38.2989C5.12736 37.207 4.00383 35.3645 4.00288 32.8471C3.99904 24.5587 3.99904 16.27 4.00288 7.98095C4.00288 7.78922 4.00863 7.59749 4.02014 7.40576C4.09235 6.19035 4.54921 5.02939 5.32468 4.09072C6.10016 3.15205 7.15406 2.48432 8.33401 2.18406H8.34168C8.82136 2.06479 9.31412 2.00618 9.8084 2.00959L28.0043 2Z" fill="#716197"/>
<path d="M31.4486 38.8117C30.6022 38.4963 30.2571 37.8732 30.3328 36.9903C30.3424 36.8724 30.3328 36.7526 30.3328 36.6174C30.0452 36.5599 29.7806 36.5215 29.5189 36.4487C28.7719 36.2531 28.11 35.8171 27.6354 35.2079C27.1609 34.5987 26.9 33.8503 26.8932 33.0781C26.8786 32.7092 27.0084 32.3491 27.2551 32.0743C27.5018 31.7995 27.8458 31.6318 28.2142 31.6066C29.0166 31.5548 29.6464 32.0859 29.748 32.894C29.8257 33.5248 30.0231 33.7051 30.6472 33.706C31.2713 33.707 31.9145 33.7108 32.5482 33.706C33.3372 33.6993 33.7686 33.2698 33.7829 32.4857C33.7829 32.3189 33.7829 32.1501 33.7829 31.9833C33.7561 31.2164 33.2912 30.7697 32.53 30.7553C31.9337 30.7448 31.3279 30.7841 30.7421 30.6968C28.6101 30.3815 27.1952 28.6271 27.2661 26.4606C27.3284 24.6392 28.3465 23.2559 30.0577 22.6903C30.2829 22.6155 30.3539 22.511 30.3453 22.2848C30.3295 21.9971 30.3369 21.7086 30.3673 21.422C30.4116 21.0749 30.5832 20.7566 30.8489 20.5288C31.1146 20.301 31.4554 20.18 31.8053 20.1892C32.1499 20.1938 32.4809 20.325 32.7351 20.5578C32.9893 20.7906 33.149 21.1088 33.1838 21.4517C33.2154 21.8064 33.1895 22.1669 33.1895 22.4919C33.5816 22.6491 33.943 22.7517 34.2632 22.929C35.4251 23.5761 36.0731 24.5683 36.1373 25.9104C36.1767 26.7243 35.6139 27.3876 34.8509 27.449C34.0437 27.5142 33.3995 26.9773 33.2911 26.1491C33.2135 25.5585 32.9978 25.3687 32.3958 25.3649C32.0248 25.3649 31.6538 25.3572 31.2838 25.3649C30.5638 25.3831 30.1276 25.8519 30.1334 26.5929C30.1391 27.3339 30.5955 27.8391 31.2943 27.8775C32.0794 27.9178 32.8847 27.8727 33.6439 28.0376C35.2957 28.3971 36.5122 29.8839 36.6253 31.5759C36.6636 32.1578 36.6857 32.7627 36.5754 33.3293C36.2553 34.9762 35.2334 36.0135 33.6219 36.4516C33.4963 36.4851 33.3707 36.5139 33.1991 36.557C33.295 37.5281 33.1886 38.4206 32.0996 38.8079L31.4486 38.8117Z" fill="#716197"/>
<path d="M21.4791 11.5615C19.9616 11.5615 18.445 11.5663 16.9275 11.5615C16.6261 11.5659 16.3312 11.4738 16.0858 11.2988C15.8404 11.1238 15.6573 10.8749 15.5634 10.5885C15.3716 10.0286 15.5212 9.38249 16.0053 9.0393C16.2713 8.84212 16.5885 8.72564 16.9189 8.70378C19.953 8.67885 22.9871 8.68461 26.0211 8.69132C26.21 8.68876 26.3975 8.72395 26.5727 8.79482C26.7478 8.8657 26.907 8.97084 27.0409 9.10406C27.1749 9.23729 27.2808 9.39592 27.3526 9.57065C27.4245 9.74538 27.4607 9.9327 27.4591 10.1216C27.4614 10.3105 27.426 10.498 27.355 10.673C27.2839 10.8481 27.1787 11.0072 27.0454 11.1411C26.9122 11.275 26.7535 11.381 26.5788 11.4529C26.4041 11.5247 26.2168 11.561 26.0279 11.5596C24.5132 11.5692 22.9957 11.5615 21.4791 11.5615Z" fill="#716197"/>
<path d="M21.4711 14.4383C22.9877 14.4383 24.5052 14.4383 26.0218 14.4383C26.3231 14.4339 26.6179 14.5259 26.8632 14.7009C27.1085 14.876 27.2913 15.125 27.385 15.4114C27.5767 15.9865 27.4137 16.6451 26.9152 16.9845C26.6547 17.1695 26.3475 17.2777 26.0285 17.297C22.9944 17.3191 19.9603 17.3152 16.9214 17.3076C16.7324 17.3102 16.5448 17.2751 16.3695 17.2042C16.1943 17.1333 16.035 17.0281 15.901 16.8948C15.767 16.7614 15.6611 16.6026 15.5894 16.4277C15.5177 16.2528 15.4817 16.0653 15.4835 15.8763C15.4835 15.0663 16.1085 14.4383 16.9511 14.4383C18.4572 14.4336 19.9651 14.4383 21.4711 14.4383Z" fill="#716197"/>
<path d="M21.4731 20.1902C22.9906 20.1902 24.5072 20.1854 26.0247 20.1902C26.3261 20.186 26.6209 20.2785 26.8659 20.4541C27.1109 20.6298 27.2931 20.8793 27.3859 21.1661C27.5777 21.7365 27.4118 22.3998 26.9133 22.7373C26.6523 22.9218 26.3448 23.0298 26.0256 23.0488C22.9915 23.0709 19.9575 23.0671 16.9186 23.0594C16.729 23.0621 16.5408 23.0268 16.3651 22.9554C16.1894 22.8841 16.0298 22.7783 15.8957 22.6443C15.7617 22.5102 15.6559 22.3506 15.5845 22.1749C15.5132 21.9992 15.4779 21.811 15.4806 21.6214C15.4782 21.4319 15.5137 21.2438 15.5851 21.0683C15.6565 20.8927 15.7623 20.7332 15.8963 20.5992C16.0303 20.4652 16.1898 20.3593 16.3654 20.2879C16.541 20.2165 16.7291 20.181 16.9186 20.1835C18.439 20.1835 19.9565 20.1902 21.4731 20.1902Z" fill="#716197"/>
<path d="M20.0206 28.8179C19.0178 28.8179 18.0141 28.8179 17.0114 28.8179C16.1189 28.8179 15.4776 28.1967 15.4872 27.3627C15.4968 26.5287 16.1323 25.9449 17.0114 25.9439C19.0297 25.9439 21.0479 25.9439 23.0662 25.9439C23.9596 25.9439 24.6 26.5632 24.5904 27.3982C24.5808 28.2331 23.9452 28.8141 23.0662 28.8179C22.051 28.8208 21.0358 28.8179 20.0206 28.8179Z" fill="#716197"/>
<path d="M11.5465 11.5873C11.2876 11.5576 11.0202 11.5595 10.7709 11.4915C10.4451 11.4017 10.1629 11.1967 9.9767 10.9147C9.79053 10.6326 9.71303 10.2925 9.7586 9.95764C9.79392 9.62219 9.94768 9.31033 10.1923 9.07805C10.4368 8.84578 10.7562 8.7083 11.093 8.69032C11.3806 8.67594 11.6682 8.67785 11.9558 8.69032C12.3237 8.70392 12.6722 8.85928 12.9282 9.12389C13.1842 9.3885 13.328 9.74186 13.3295 10.1101C13.3347 10.486 13.1917 10.8488 12.9313 11.1201C12.671 11.3914 12.3144 11.5492 11.9385 11.5595C11.8082 11.5653 11.6768 11.5595 11.5455 11.5595L11.5465 11.5873Z" fill="#716197"/>
<path d="M11.5225 17.3363C11.2857 17.3264 11.0499 17.2998 10.8169 17.2567C10.4837 17.1748 10.1922 16.9733 9.99774 16.6905C9.80333 16.4077 9.71958 16.0634 9.76241 15.7229C9.79561 15.3812 9.95171 15.0631 10.2017 14.8277C10.4517 14.5923 10.7786 14.4557 11.1218 14.4431C11.3959 14.4316 11.6711 14.4316 11.9443 14.4431C12.3187 14.4542 12.6737 14.6119 12.9329 14.8824C13.192 15.1528 13.3345 15.5142 13.3295 15.8888C13.3281 16.257 13.1849 16.6104 12.9296 16.8758C12.6743 17.1411 12.3265 17.2978 11.9587 17.3133C11.8158 17.32 11.6711 17.3133 11.5301 17.3133L11.5225 17.3363Z" fill="#716197"/>
<path d="M11.5672 20.1662C11.8041 20.178 12.0399 20.2065 12.2727 20.2515C12.6058 20.3368 12.8959 20.5419 13.0874 20.8275C13.2789 21.113 13.3585 21.4592 13.311 21.7997C13.2741 22.1353 13.1186 22.4466 12.8726 22.6778C12.6265 22.9089 12.3061 23.0445 11.9689 23.0603C11.6815 23.0749 11.3935 23.0749 11.1061 23.0603C10.7382 23.0447 10.3905 22.8875 10.1359 22.6214C9.8813 22.3554 9.73945 22.0012 9.74003 21.6329C9.73738 21.2591 9.88134 20.8992 10.141 20.6304C10.4007 20.3616 10.7555 20.2052 11.1291 20.195C11.2719 20.1892 11.4167 20.195 11.5576 20.195L11.5672 20.1662Z" fill="#716197"/>
<path d="M11.5205 25.9171C11.7803 25.9458 12.0478 25.9439 12.2961 26.0129C12.6228 26.1017 12.9061 26.3063 13.0932 26.5884C13.2804 26.8706 13.3585 27.2112 13.3132 27.5467C13.2784 27.8823 13.1254 28.1944 12.8814 28.4274C12.6374 28.6603 12.3184 28.7987 11.9816 28.8179C11.7084 28.8332 11.4333 28.8294 11.1591 28.8179C10.9707 28.8158 10.7846 28.7764 10.6115 28.702C10.4384 28.6277 10.2817 28.5198 10.1504 28.3847C10.0192 28.2495 9.91597 28.0897 9.84674 27.9144C9.77751 27.7392 9.74364 27.552 9.74706 27.3636C9.75005 26.9892 9.89987 26.6309 10.1643 26.3657C10.4287 26.1006 10.7866 25.9498 11.1611 25.9458C11.2799 25.9458 11.3988 25.9458 11.5186 25.9458L11.5205 25.9171Z" fill="#716197"/>
</g>
</svg>
