<svg width="38" height="38" viewBox="0 0 38 38" fill="none" xmlns="http://www.w3.org/2000/svg">
<mask id="mask0_902_672" style="mask-type:alpha" maskUnits="userSpaceOnUse" x="0" y="0" width="38" height="38">
<rect width="38" height="38" fill="#C4C4C4"/>
</mask>
<g mask="url(#mask0_902_672)">
<path d="M33.8985 37.3797H10.4866C10.0393 37.3791 9.59282 37.3414 9.15175 37.267L9.03901 37.249C4.9245 36.5858 1.72232 33.3088 1.09989 29.127C0.497348 25.0836 2.66687 20.9909 6.36263 19.1794C7.31467 18.7176 8.33366 18.4091 9.38196 18.2652C9.41981 18.26 9.45451 18.2413 9.47973 18.2126C9.50496 18.1839 9.51901 18.1471 9.51933 18.1089V17.8067C9.51933 13.3085 9.51933 8.81091 9.51933 4.31397C9.51933 3.13826 9.97219 2.18518 10.9575 1.54759C11.345 1.29748 12.0081 1 12.3151 1H28.4264C29.1009 1 29.7233 1.31074 30.2141 1.75791L30.2236 1.76644C30.4225 1.97297 36.2537 7.81741 36.5303 8.08268C36.9785 8.54122 37.1831 9.13618 37.1831 9.42513C37.173 14.277 37.1711 19.1289 37.1774 23.9808C37.1774 27.3535 37.185 30.7262 37.1727 34.0989C37.1727 35.5143 36.5019 36.5309 35.2154 37.1211C35.1517 37.1503 35.0865 37.1763 35.0202 37.1988C34.659 37.321 34.2799 37.3822 33.8985 37.3797V37.3797ZM27.9574 3.29173C27.9574 3.24943 27.9407 3.20885 27.9109 3.17885C27.881 3.14885 27.8406 3.13188 27.7983 3.13163H12.8845C12.0574 3.13163 11.6472 3.54469 11.6462 4.37744V17.7356L12.1455 18.3211C13.6572 18.5674 15.0853 19.1809 16.3045 20.1079C16.498 20.2588 16.7386 20.3367 16.9838 20.3277C21.6045 20.3214 26.225 20.3214 30.8451 20.3277C30.9635 20.3277 31.0819 20.3277 31.1994 20.3277C31.4615 20.3431 31.709 20.454 31.895 20.6393C32.0811 20.8247 32.1929 21.0717 32.2093 21.3338C32.2211 21.5965 32.1361 21.8544 31.9703 22.0585C31.8046 22.2627 31.5697 22.3989 31.3102 22.4413C31.1694 22.4575 31.0274 22.4622 30.8858 22.4555H18.8284C18.8002 22.4554 18.7726 22.4629 18.7483 22.477C18.724 22.4912 18.7039 22.5116 18.6901 22.5361C18.6763 22.5606 18.6693 22.5884 18.6698 22.6165C18.6703 22.6446 18.6782 22.6721 18.6929 22.6962C19.4245 23.8778 19.8967 25.2015 20.078 26.5795C20.0828 26.6178 20.1015 26.6529 20.1305 26.6784C20.1594 26.7039 20.1967 26.7179 20.2353 26.7178H20.8984C24.2661 26.7178 27.6337 26.7178 31.0014 26.7178C31.513 26.7178 31.9061 26.8988 32.1155 27.3753C32.4376 28.1076 31.891 28.8504 31.0336 28.8513C27.5238 28.8513 24.0141 28.8513 20.5043 28.8513H20.2305C20.1922 28.8513 20.1552 28.8652 20.1264 28.8905C20.0976 28.9158 20.079 28.9507 20.0742 28.9887C19.9174 30.1806 19.5426 31.3335 18.9686 32.3898C18.4303 33.3586 17.7342 34.2308 16.909 34.9705C16.8856 34.9922 16.8694 35.0204 16.8622 35.0515C16.8551 35.0825 16.8575 35.115 16.869 35.1447C16.8805 35.1744 16.9007 35.1999 16.9269 35.218C16.9531 35.2361 16.9842 35.2459 17.016 35.2462H33.7602C34.6574 35.2462 35.0486 34.8502 35.0486 33.9445V10.3962C35.0486 10.354 35.0319 10.3135 35.002 10.2837C34.9722 10.2538 34.9317 10.237 34.8895 10.237H34.627C32.7954 10.237 30.9638 10.237 29.1322 10.237C28.3951 10.237 27.9603 9.80314 27.9584 9.07175C27.9584 7.88752 27.9584 6.70328 27.9584 5.51905L27.9574 3.29173ZM3.13583 27.7637C3.12635 31.8745 6.45169 35.233 10.5491 35.2481C12.5234 35.2512 14.4185 34.4723 15.82 33.0818C17.2215 31.6913 18.0153 29.8024 18.0278 27.8282C18.0458 23.7023 14.7072 20.3334 10.5956 20.3267C8.6216 20.3282 6.72859 21.1116 5.33074 22.5053C3.9329 23.8991 3.14404 25.7898 3.13677 27.7637H3.13583ZM33.1036 7.8212L30.3789 5.09272C30.3568 5.07024 30.3285 5.05489 30.2975 5.04864C30.2666 5.04239 30.2345 5.04552 30.2054 5.05764C30.1763 5.06976 30.1515 5.09031 30.1341 5.11665C30.1167 5.14299 30.1076 5.17392 30.108 5.20546V7.93394C30.108 7.97615 30.1248 8.01663 30.1546 8.04648C30.1845 8.07633 30.2249 8.0931 30.2672 8.0931H32.9909C33.0224 8.09318 33.0533 8.08389 33.0795 8.0664C33.1058 8.04892 33.1262 8.02403 33.1383 7.9949C33.1504 7.96577 33.1535 7.93371 33.1474 7.90278C33.1412 7.87186 33.126 7.84346 33.1036 7.8212V7.8212Z" fill="#4CBC9A"/>
<path d="M23.3078 16.0633C20.7448 16.0633 18.1821 16.0633 15.6198 16.0633C14.7756 16.0633 14.2432 15.2827 14.5852 14.5589C14.787 14.1325 15.1413 13.9336 15.6103 13.9336H19.9683C23.665 13.9336 27.3614 13.9336 31.0575 13.9336C31.9101 13.9336 32.4482 14.6915 32.1176 15.4229C31.9092 15.8814 31.5274 16.0671 31.0309 16.0662C28.4566 16.0643 25.8822 16.0633 23.3078 16.0633Z" fill="#4CBC9A"/>
<path d="M9.10614 29.3752C9.40173 29.0587 9.64426 28.7859 9.90195 28.5225C11.0098 27.4078 12.1204 26.2952 13.2339 25.1849C13.7228 24.697 14.3708 24.6742 14.8094 25.1148C15.2481 25.5553 15.2244 26.2024 14.7355 26.695C13.1357 28.3049 11.5324 29.9114 9.92563 31.5144C9.38752 32.0497 8.78877 32.0392 8.24686 31.4992C7.59316 30.8493 6.94199 30.1966 6.29334 29.541C5.80449 29.0464 5.77417 28.4041 6.20808 27.9626C6.64198 27.5211 7.29379 27.5372 7.78453 28.0223C8.21181 28.4486 8.62676 28.8844 9.10614 29.3752Z" fill="#4CBC9A"/>
</g>
</svg>
