<svg width="38" height="38" viewBox="0 0 38 38" fill="none" xmlns="http://www.w3.org/2000/svg">
<mask id="mask0_902_697" style="mask-type:alpha" maskUnits="userSpaceOnUse" x="0" y="0" width="38" height="38">
<rect width="38" height="38" fill="#C4C4C4"/>
</mask>
<g mask="url(#mask0_902_697)">
<path d="M18.9719 20.6309C14.6665 20.6309 10.3614 20.6309 6.05663 20.6309C4.98333 20.6309 4.245 19.8967 4.2981 18.9061C4.32047 18.5139 4.48448 18.1431 4.75965 17.8627C5.03481 17.5822 5.40243 17.4112 5.79418 17.3814C5.94634 17.3712 6.10054 17.3733 6.2527 17.3733C14.7349 17.3733 23.2174 17.3733 31.7003 17.3733C31.9791 17.3625 32.2579 17.3914 32.5285 17.4591C32.8933 17.5719 33.2059 17.8112 33.4099 18.134C33.614 18.4567 33.6962 18.8417 33.6417 19.2196C33.5917 19.5956 33.4118 19.9423 33.1332 20.1997C32.8546 20.457 32.4947 20.6089 32.116 20.6289C31.9638 20.6371 31.8096 20.635 31.6574 20.635L18.9719 20.6309Z" fill="#FAAF56"/>
<path d="M18.9945 7.56903C21.1482 7.56903 23.3009 7.55882 25.4537 7.56903C27.9383 7.58435 29.8929 9.23871 30.3208 11.6896C30.3903 12.0662 30.3962 12.4518 30.3381 12.8303C30.2064 13.6013 29.4476 14.1426 28.6572 14.0946C28.2721 14.0692 27.9086 13.9076 27.6317 13.6387C27.3548 13.3699 27.1826 13.0113 27.1458 12.6271C27.0284 11.3404 26.4596 10.8226 25.1647 10.8226H12.7426C11.5049 10.8226 10.9044 11.37 10.8023 12.5914C10.7717 13.0091 10.5809 13.3989 10.2698 13.6794C9.95872 13.9598 9.55131 14.1093 9.13263 14.0966C8.72066 14.0826 8.32945 13.9124 8.03835 13.6205C7.74725 13.3286 7.57805 12.937 7.56507 12.525C7.46295 9.99952 9.58196 7.65583 12.1125 7.59047C14.4041 7.53124 16.6988 7.57822 18.9914 7.57822L18.9945 7.56903Z" fill="#FAAF56"/>
<path d="M18.9751 30.4382C16.8224 30.4382 14.6687 30.4474 12.516 30.4382C10.0232 30.4259 8.07164 28.7848 7.62844 26.338C7.57943 26.0483 7.56094 25.7543 7.57329 25.4608C7.58739 25.0487 7.75933 24.6577 8.05357 24.3688C8.3478 24.0799 8.74182 23.9151 9.15413 23.9085C9.56632 23.9001 9.96623 24.0491 10.2724 24.3251C10.5787 24.6012 10.7682 24.9836 10.8024 25.3944C10.9106 26.6485 11.4948 27.1826 12.7611 27.1826H25.1872C26.4525 27.1826 27.0397 26.6464 27.1469 25.3965C27.1808 24.9855 27.3701 24.6029 27.676 24.3265C27.982 24.0501 28.3818 23.9007 28.7941 23.9085C29.2063 23.9162 29.6002 24.0807 29.8954 24.3685C30.1906 24.6563 30.365 25.0458 30.3831 25.4577C30.4985 27.976 28.3846 30.3432 25.8571 30.4127C23.5665 30.4749 21.2719 30.4259 18.9782 30.4259L18.9751 30.4382Z" fill="#FAAF56"/>
<path d="M36.9003 31.3985C36.9514 32.2737 36.9085 33.1437 36.5409 33.9515C35.6667 35.8714 34.1666 36.8895 32.0598 36.9855C31.5257 37.0101 30.9896 36.9988 30.4544 36.9855C29.4679 36.9631 28.7551 36.2625 28.7613 35.3332C28.7674 34.4039 29.4935 33.7197 30.48 33.7136C30.9906 33.7136 31.5012 33.7136 32.0118 33.7136C32.9534 33.6972 33.6406 33.0038 33.6549 32.0561C33.6631 31.52 33.6549 30.9839 33.6549 30.4477C33.6538 30.0348 33.809 29.6367 34.0894 29.3336C34.3698 29.0305 34.7546 28.8448 35.1663 28.8138C35.5847 28.7801 35.9996 28.9114 36.3224 29.1798C36.6451 29.4481 36.85 29.8321 36.8932 30.2496C36.9381 30.6295 36.9003 31.0165 36.9003 31.3985Z" fill="#FAAF56"/>
<path d="M31.4166 1.02151C32.4491 0.971474 33.5121 1.10117 34.4803 1.69041C36.0345 2.64014 36.8495 4.03307 36.9261 5.85288C36.9496 6.40127 36.9414 6.95068 36.9261 7.5001C36.9036 8.48965 36.2041 9.20246 35.2778 9.19633C34.3516 9.1902 33.6633 8.46208 33.6551 7.47661C33.6551 6.966 33.6612 6.45539 33.6551 5.94479C33.6579 5.72715 33.6169 5.51117 33.5347 5.30965C33.4524 5.10814 33.3305 4.9252 33.1762 4.77167C33.0219 4.61815 32.8384 4.49717 32.6365 4.4159C32.4346 4.33464 32.2184 4.29474 32.0008 4.29859C31.4789 4.29042 30.9561 4.29859 30.4342 4.29859C29.4978 4.28634 28.7849 3.60212 28.7655 2.7055C28.7461 1.80887 29.4201 1.08687 30.3535 1.03071C30.6803 1.00518 31.0081 1.02151 31.4166 1.02151Z" fill="#FAAF56"/>
<path d="M6.69084 36.9765C5.34692 37.0562 4.1378 36.8438 3.08085 36.0574C1.75327 35.074 1.07518 33.7485 1.03025 32.0982C1.01595 31.5753 1.02004 31.0514 1.03025 30.5286C1.04761 29.5176 1.75123 28.7925 2.69483 28.8109C3.61392 28.8242 4.28996 29.5513 4.29711 30.5469C4.29711 31.0576 4.28996 31.5682 4.29711 32.0788C4.29562 32.2938 4.33686 32.5069 4.41845 32.7058C4.50003 32.9047 4.62033 33.0854 4.77235 33.2375C4.92438 33.3895 5.1051 33.5098 5.30401 33.5914C5.50292 33.673 5.71607 33.7142 5.93105 33.7127C6.46515 33.7229 7.00129 33.7127 7.5364 33.7178C8.43711 33.7301 9.13766 34.3837 9.1877 35.2496C9.21673 35.6751 9.07677 36.0949 8.7982 36.4178C8.51963 36.7408 8.12494 36.9408 7.6998 36.9745C7.36375 36.993 7.02696 36.9937 6.69084 36.9765V36.9765Z" fill="#FAAF56"/>
<path d="M6.67041 1C7.06358 1.0194 7.46288 1 7.84992 1.06536C8.24442 1.13035 8.60026 1.34076 8.84732 1.65511C9.09438 1.96946 9.21472 2.36495 9.18464 2.76364C9.16045 3.16269 8.98981 3.53877 8.70543 3.81976C8.42105 4.10075 8.04294 4.26687 7.64363 4.28627C7.084 4.30873 6.5203 4.28627 5.96271 4.29546C4.99562 4.30771 4.30835 4.99703 4.29609 5.96718C4.28996 6.50332 4.30426 7.04048 4.29609 7.57662C4.29404 7.98944 4.13521 8.38606 3.85176 8.6862C3.56831 8.98634 3.18141 9.16756 2.76938 9.1932C1.92586 9.24324 1.15177 8.66829 1.07723 7.81456C0.975105 6.69837 0.923022 5.56789 1.25798 4.47111C1.87888 2.444 3.74362 1.06638 5.90859 1.0194C6.16389 1.0143 6.41919 1.0194 6.67348 1.0194L6.67041 1Z" fill="#FAAF56"/>
</g>
</svg>
